<?xml version="1.0" encoding="UTF-8"?>
<svg xmlns="http://www.w3.org/2000/svg" xmlns:xlink="http://www.w3.org/1999/xlink" width="318pt" height="282pt" viewBox="0 0 318 282" version="1.1">
<defs>
<filter id="alpha" filterUnits="objectBoundingBox" x="0%" y="0%" width="100%" height="100%">
  <feColorMatrix type="matrix" in="SourceGraphic" values="0 0 0 0 1 0 0 0 0 1 0 0 0 0 1 0 0 0 1 0"/>
</filter>
<mask id="mask0">
  <g filter="url(#alpha)">
<rect x="0" y="0" width="318" height="282" style="fill:rgb(0%,0%,0%);fill-opacity:0.101961;stroke:none;"/>
  </g>
</mask>
<clipPath id="clip1">
  <rect width="318" height="282"/>
</clipPath>
<g id="surface6" clip-path="url(#clip1)">
<path style=" stroke:none;fill-rule:nonzero;fill:rgb(25.882353%,60%,88.235294%);fill-opacity:1;" d="M 142.492188 109.089844 C 130.058594 105.066406 116.917969 101.691406 103.484375 102.039062 C 83.738281 102.554688 64.75 111.761719 55.386719 125.367188 C 47.46875 136.898438 46.414062 150.453125 42.957031 163.273438 C 38.699219 179.070312 30.621094 194.0625 21.996094 208.726562 C 17.363281 216.597656 12.476562 224.640625 11.671875 233.292969 C 10.566406 245.304688 17.839844 257.316406 29.3125 265.367188 C 40.78125 273.417969 56.046875 277.707031 71.382812 278.707031 C 79.542969 279.238281 88.070312 278.828125 95.335938 275.886719 C 103.019531 272.789062 108.640625 267.117188 116.355469 264.054688 C 123.507812 261.214844 131.84375 260.851562 139.863281 261.269531 C 150.253906 261.792969 160.542969 263.558594 170.515625 266.523438 C 181.695312 269.871094 192.085938 274.6875 203.246094 278.082031 C 214.402344 281.476562 226.875 283.398438 238.308594 280.667969 C 249.042969 278.105469 257.554688 271.789062 265.234375 265.394531 C 277.605469 255.109375 289.113281 243.824219 299.632812 231.648438 C 306.566406 223.597656 313.027344 215.089844 316.125 205.679688 C 322.039062 187.6875 314.113281 167.3125 296.378906 154.921875 C 281.6875 144.648438 261.921875 140.113281 242.566406 137.359375 C 224.917969 134.824219 204.492188 134.570312 188.269531 128.109375 C 172.796875 121.929688 158.722656 114.347656 142.492188 109.089844 Z M 142.492188 109.089844 "/>
</g>
<mask id="mask1">
  <g filter="url(#alpha)">
<rect x="0" y="0" width="318" height="282" style="fill:rgb(0%,0%,0%);fill-opacity:0.101961;stroke:none;"/>
  </g>
</mask>
<clipPath id="clip2">
  <rect width="318" height="282"/>
</clipPath>
<g id="surface9" clip-path="url(#clip2)">
<path style=" stroke:none;fill-rule:nonzero;fill:rgb(25.882353%,60%,88.235294%);fill-opacity:1;" d="M 308.902344 169.320312 C 308.902344 168.71875 305.339844 168.230469 300.945312 168.230469 C 296.554688 168.230469 292.992188 168.71875 292.992188 169.320312 C 292.992188 169.921875 296.554688 170.410156 300.945312 170.410156 C 305.339844 170.410156 308.902344 169.921875 308.902344 169.320312 Z M 308.902344 169.320312 "/>
</g>
<mask id="mask2">
  <g filter="url(#alpha)">
<rect x="0" y="0" width="318" height="282" style="fill:rgb(0%,0%,0%);fill-opacity:0.101961;stroke:none;"/>
  </g>
</mask>
<clipPath id="clip3">
  <rect width="318" height="282"/>
</clipPath>
<g id="surface12" clip-path="url(#clip3)">
<path style=" stroke:none;fill-rule:nonzero;fill:rgb(25.882353%,60%,88.235294%);fill-opacity:1;" d="M 278.433594 172.414062 C 278.433594 171.808594 274.871094 171.320312 270.480469 171.320312 C 266.085938 171.320312 262.527344 171.808594 262.527344 172.414062 C 262.527344 173.015625 266.085938 173.503906 270.480469 173.503906 C 274.871094 173.503906 278.433594 173.015625 278.433594 172.414062 Z M 278.433594 172.414062 "/>
</g>
<mask id="mask3">
  <g filter="url(#alpha)">
<rect x="0" y="0" width="318" height="282" style="fill:rgb(0%,0%,0%);fill-opacity:0.101961;stroke:none;"/>
  </g>
</mask>
<clipPath id="clip4">
  <rect width="318" height="282"/>
</clipPath>
<g id="surface15" clip-path="url(#clip4)">
<path style=" stroke:none;fill-rule:nonzero;fill:rgb(25.882353%,60%,88.235294%);fill-opacity:1;" d="M 242.542969 168.230469 C 242.542969 167.625 238.984375 167.136719 234.589844 167.136719 C 230.199219 167.136719 226.636719 167.625 226.636719 168.230469 C 226.636719 168.832031 230.199219 169.320312 234.589844 169.320312 C 238.984375 169.320312 242.542969 168.832031 242.542969 168.230469 Z M 242.542969 168.230469 "/>
</g>
<mask id="mask4">
  <g filter="url(#alpha)">
<rect x="0" y="0" width="318" height="282" style="fill:rgb(0%,0%,0%);fill-opacity:0.101961;stroke:none;"/>
  </g>
</mask>
<clipPath id="clip5">
  <rect width="318" height="282"/>
</clipPath>
<g id="surface18" clip-path="url(#clip5)">
<path style=" stroke:none;fill-rule:nonzero;fill:rgb(25.882353%,60%,88.235294%);fill-opacity:1;" d="M 288.328125 181.214844 C 288.328125 180.785156 285.796875 180.433594 282.671875 180.433594 C 279.550781 180.433594 277.019531 180.785156 277.019531 181.214844 C 277.019531 181.644531 279.550781 181.992188 282.671875 181.992188 C 285.796875 181.992188 288.328125 181.644531 288.328125 181.214844 Z M 288.328125 181.214844 "/>
</g>
<mask id="mask5">
  <g filter="url(#alpha)">
<rect x="0" y="0" width="318" height="282" style="fill:rgb(0%,0%,0%);fill-opacity:0.101961;stroke:none;"/>
  </g>
</mask>
<clipPath id="clip6">
  <rect width="318" height="282"/>
</clipPath>
<g id="surface21" clip-path="url(#clip6)">
<path style=" stroke:none;fill-rule:nonzero;fill:rgb(25.882353%,60%,88.235294%);fill-opacity:1;" d="M 256.707031 180.433594 C 256.707031 180.003906 254.175781 179.65625 251.050781 179.65625 C 247.929688 179.65625 245.398438 180.003906 245.398438 180.433594 C 245.398438 180.863281 247.929688 181.214844 251.050781 181.214844 C 254.175781 181.214844 256.707031 180.863281 256.707031 180.433594 Z M 256.707031 180.433594 "/>
</g>
<mask id="mask6">
  <g filter="url(#alpha)">
<rect x="0" y="0" width="318" height="282" style="fill:rgb(0%,0%,0%);fill-opacity:0.101961;stroke:none;"/>
  </g>
</mask>
<clipPath id="clip7">
  <rect width="318" height="282"/>
</clipPath>
<g id="surface24" clip-path="url(#clip7)">
<path style=" stroke:none;fill-rule:nonzero;fill:rgb(0%,0%,0%);fill-opacity:1;" d="M 234.074219 157.019531 C 233.980469 157.152344 233.90625 157.300781 233.855469 157.457031 C 231.988281 159.648438 230.992188 161.695312 232.785156 161.75 C 234.460938 161.796875 236.464844 164.785156 236.945312 165.535156 C 236.945312 165.59375 236.910156 165.652344 236.890625 165.707031 C 236.890625 165.707031 234.539062 161.800781 232.625 161.746094 C 230.710938 161.691406 231.96875 159.371094 234.074219 157.019531 Z M 234.074219 157.019531 "/>
</g>
<mask id="mask7">
  <g filter="url(#alpha)">
<rect x="0" y="0" width="318" height="282" style="fill:rgb(0%,0%,0%);fill-opacity:0.101961;stroke:none;"/>
  </g>
</mask>
<clipPath id="clip8">
  <rect width="318" height="282"/>
</clipPath>
<g id="surface27" clip-path="url(#clip8)">
<path style=" stroke:none;fill-rule:nonzero;fill:rgb(0%,0%,0%);fill-opacity:1;" d="M 239.699219 157.019531 C 239.796875 157.152344 239.871094 157.300781 239.921875 157.457031 C 241.785156 159.648438 242.78125 161.695312 240.988281 161.75 C 239.316406 161.796875 237.308594 164.785156 236.832031 165.535156 C 236.847656 165.59375 236.867188 165.652344 236.890625 165.707031 C 236.890625 165.707031 239.238281 161.800781 241.148438 161.746094 C 243.0625 161.691406 241.808594 159.371094 239.699219 157.019531 Z M 239.699219 157.019531 "/>
</g>
<mask id="mask8">
  <g filter="url(#alpha)">
<rect x="0" y="0" width="318" height="282" style="fill:rgb(0%,0%,0%);fill-opacity:0.2;stroke:none;"/>
  </g>
</mask>
<clipPath id="clip9">
  <rect width="318" height="282"/>
</clipPath>
<g id="surface30" clip-path="url(#clip9)">
<path style=" stroke:none;fill-rule:nonzero;fill:rgb(0%,0%,0%);fill-opacity:1;" d="M 231.484375 169.191406 C 234.847656 169.21875 239.300781 168.667969 240.199219 168.121094 C 240.886719 167.710938 241.152344 166.214844 241.234375 165.527344 L 241.328125 165.527344 C 241.328125 165.527344 241.144531 167.9375 240.246094 168.476562 C 239.347656 169.015625 234.898438 169.574219 231.53125 169.546875 C 230.558594 169.546875 230.226562 169.203125 230.242188 168.683594 C 230.390625 168.996094 230.761719 169.191406 231.484375 169.191406 Z M 231.484375 169.191406 "/>
</g>
<mask id="mask9">
  <g filter="url(#alpha)">
<rect x="0" y="0" width="318" height="282" style="fill:rgb(0%,0%,0%);fill-opacity:0.101961;stroke:none;"/>
  </g>
</mask>
<clipPath id="clip10">
  <rect width="318" height="282"/>
</clipPath>
<g id="surface33" clip-path="url(#clip10)">
<path style=" stroke:none;fill-rule:nonzero;fill:rgb(25.882353%,60%,88.235294%);fill-opacity:1;" d="M 51.835938 20.839844 C 51.835938 24.953125 48.503906 28.285156 44.394531 28.285156 C 40.28125 28.285156 36.949219 24.953125 36.949219 20.839844 C 36.949219 16.726562 40.28125 13.390625 44.394531 13.390625 C 48.503906 13.390625 51.835938 16.726562 51.835938 20.839844 Z M 51.835938 20.839844 "/>
</g>
<mask id="mask10">
  <g filter="url(#alpha)">
<rect x="0" y="0" width="318" height="282" style="fill:rgb(0%,0%,0%);fill-opacity:0.101961;stroke:none;"/>
  </g>
</mask>
<clipPath id="clip11">
  <rect width="318" height="282"/>
</clipPath>
<g id="surface36" clip-path="url(#clip11)">
<path style=" stroke:none;fill-rule:nonzero;fill:rgb(25.882353%,60%,88.235294%);fill-opacity:1;" d="M 180.589844 9.082031 C 180.589844 13.195312 177.257812 16.53125 173.144531 16.53125 C 169.035156 16.53125 165.699219 13.195312 165.699219 9.082031 C 165.699219 4.96875 169.035156 1.636719 173.144531 1.636719 C 177.257812 1.636719 180.589844 4.96875 180.589844 9.082031 Z M 180.589844 9.082031 "/>
</g>
<mask id="mask11">
  <g filter="url(#alpha)">
<rect x="0" y="0" width="318" height="282" style="fill:rgb(0%,0%,0%);fill-opacity:0.101961;stroke:none;"/>
  </g>
</mask>
<clipPath id="clip12">
  <rect width="318" height="282"/>
</clipPath>
<g id="surface39" clip-path="url(#clip12)">
<path style=" stroke:none;fill-rule:nonzero;fill:rgb(25.882353%,60%,88.235294%);fill-opacity:1;" d="M 298.6875 38.503906 C 298.6875 42.617188 295.351562 45.953125 291.242188 45.953125 C 287.128906 45.953125 283.796875 42.617188 283.796875 38.503906 C 283.796875 34.390625 287.128906 31.058594 291.242188 31.058594 C 295.351562 31.058594 298.6875 34.390625 298.6875 38.503906 Z M 298.6875 38.503906 "/>
</g>
<mask id="mask12">
  <g filter="url(#alpha)">
<rect x="0" y="0" width="318" height="282" style="fill:rgb(0%,0%,0%);fill-opacity:0.101961;stroke:none;"/>
  </g>
</mask>
<clipPath id="clip13">
  <rect width="318" height="282"/>
</clipPath>
<g id="surface42" clip-path="url(#clip13)">
<path style=" stroke:none;fill-rule:nonzero;fill:rgb(25.882353%,60%,88.235294%);fill-opacity:1;" d="M 24.953125 89.128906 C 24.953125 96.019531 19.367188 101.609375 12.476562 101.609375 C 5.585938 101.609375 0 96.019531 0 89.128906 C 0 82.234375 5.585938 76.644531 12.476562 76.644531 C 19.367188 76.644531 24.953125 82.234375 24.953125 89.128906 Z M 24.953125 89.128906 "/>
</g>
<mask id="mask13">
  <g filter="url(#alpha)">
<rect x="0" y="0" width="318" height="282" style="fill:rgb(0%,0%,0%);fill-opacity:0.101961;stroke:none;"/>
  </g>
</mask>
<clipPath id="clip14">
  <rect width="318" height="282"/>
</clipPath>
<g id="surface45" clip-path="url(#clip14)">
<path style=" stroke:none;fill-rule:nonzero;fill:rgb(25.882353%,60%,88.235294%);fill-opacity:1;" d="M 36.910156 150.761719 C 36.910156 157.65625 31.324219 163.242188 24.433594 163.242188 C 17.546875 163.242188 11.960938 157.65625 11.960938 150.761719 C 11.960938 143.867188 17.546875 138.28125 24.433594 138.28125 C 31.324219 138.28125 36.910156 143.867188 36.910156 150.761719 Z M 36.910156 150.761719 "/>
</g>
<mask id="mask14">
  <g filter="url(#alpha)">
<rect x="0" y="0" width="318" height="282" style="fill:rgb(0%,0%,0%);fill-opacity:0.101961;stroke:none;"/>
  </g>
</mask>
<clipPath id="clip15">
  <rect width="318" height="282"/>
</clipPath>
<g id="surface48" clip-path="url(#clip15)">
<path style=" stroke:none;fill-rule:nonzero;fill:rgb(25.882353%,60%,88.235294%);fill-opacity:1;" d="M 270.566406 96.394531 C 270.566406 103.289062 264.980469 108.878906 258.089844 108.878906 C 251.199219 108.878906 245.613281 103.289062 245.613281 96.394531 C 245.613281 89.503906 251.199219 83.914062 258.089844 83.914062 C 264.980469 83.914062 270.566406 89.503906 270.566406 96.394531 Z M 270.566406 96.394531 "/>
</g>
<mask id="mask15">
  <g filter="url(#alpha)">
<rect x="0" y="0" width="318" height="282" style="fill:rgb(0%,0%,0%);fill-opacity:0.101961;stroke:none;"/>
  </g>
</mask>
<clipPath id="clip16">
  <rect width="318" height="282"/>
</clipPath>
<g id="surface51" clip-path="url(#clip16)">
<path style=" stroke:none;fill-rule:nonzero;fill:rgb(0%,0%,0%);fill-opacity:1;" d="M 63.152344 133.484375 C 63.003906 133.804688 62.957031 134.167969 63.023438 134.515625 C 63.183594 135.203125 63.890625 135.601562 64.527344 135.914062 L 70.578125 138.875 C 71 139.070312 71.410156 139.289062 71.804688 139.527344 C 72.835938 140.160156 73.648438 141.054688 74.53125 141.875 C 75.410156 142.695312 76.390625 143.460938 77.558594 143.75 C 78.722656 144.007812 79.941406 143.847656 81 143.300781 C 81.570312 143.015625 82.101562 142.65625 82.578125 142.230469 C 82.988281 141.867188 83.367188 141.472656 83.710938 141.046875 C 84.007812 140.734375 84.21875 140.351562 84.328125 139.9375 C 84.441406 139.304688 84.128906 138.6875 83.765625 138.167969 C 83.554688 137.867188 83.324219 137.582031 83.074219 137.3125 C 80.78125 134.773438 77.019531 133.460938 73.785156 132.941406 C 72.496094 132.734375 71.273438 132.253906 70.035156 131.863281 C 68.796875 131.46875 67.484375 131.171875 66.199219 131.355469 C 64.910156 131.539062 63.644531 132.277344 63.152344 133.484375 Z M 63.152344 133.484375 "/>
</g>
<mask id="mask16">
  <g filter="url(#alpha)">
<rect x="0" y="0" width="318" height="282" style="fill:rgb(0%,0%,0%);fill-opacity:0.101961;stroke:none;"/>
  </g>
</mask>
<clipPath id="clip17">
  <rect width="318" height="282"/>
</clipPath>
<g id="surface54" clip-path="url(#clip17)">
<path style=" stroke:none;fill-rule:nonzero;fill:rgb(0%,0%,0%);fill-opacity:1;" d="M 66.164062 113.273438 C 65.453125 116.265625 65.753906 119.402344 66.132812 122.457031 C 66.421875 124.785156 66.746094 127.195312 66.058594 129.4375 C 65.800781 130.273438 65.398438 131.125 65.554688 131.988281 C 65.847656 133.617188 67.808594 134.246094 69.433594 134.550781 C 69.902344 134.671875 70.390625 134.699219 70.867188 134.636719 C 71.351562 134.507812 71.796875 134.269531 72.175781 133.949219 C 74.484375 132.269531 76.238281 129.9375 77.210938 127.25 C 77.828125 125.453125 78.023438 123.542969 78.210938 121.652344 C 78.53125 118.472656 78.847656 115.25 78.386719 112.089844 C 78.246094 111.160156 78.039062 110.242188 77.953125 109.304688 C 77.847656 107.675781 77.9375 106.039062 78.222656 104.433594 C 78.816406 100.453125 79.714844 96.523438 80.90625 92.679688 C 77.628906 93.113281 74.300781 92.511719 71.382812 90.957031 C 71.945312 91.257812 71.296875 96.089844 71.230469 96.769531 C 71.019531 98.789062 70.65625 100.792969 70.140625 102.757812 C 69.179688 106.433594 67.035156 109.621094 66.164062 113.273438 Z M 66.164062 113.273438 "/>
</g>
<mask id="mask17">
  <g filter="url(#alpha)">
<rect x="0" y="0" width="318" height="282" style="fill:rgb(0%,0%,0%);fill-opacity:0.101961;stroke:none;"/>
  </g>
</mask>
<clipPath id="clip18">
  <rect width="318" height="282"/>
</clipPath>
<g id="surface57" clip-path="url(#clip18)">
<path style=" stroke:none;fill-rule:nonzero;fill:rgb(0%,0%,0%);fill-opacity:1;" d="M 134.25 51.800781 C 134.277344 52.902344 134.472656 53.992188 134.835938 55.03125 C 135.453125 53.628906 135.523438 52.050781 135.609375 50.523438 C 135.953125 45.257812 137.117188 40.292969 138.359375 35.191406 C 137.457031 35.882812 136.945312 37.601562 136.511719 38.636719 C 134.792969 42.800781 134.019531 47.296875 134.25 51.800781 Z M 134.25 51.800781 "/>
</g>
<mask id="mask18">
  <g filter="url(#alpha)">
<rect x="0" y="0" width="318" height="282" style="fill:rgb(0%,0%,0%);fill-opacity:0.101961;stroke:none;"/>
  </g>
</mask>
<clipPath id="clip19">
  <rect width="318" height="282"/>
</clipPath>
<g id="surface60" clip-path="url(#clip19)">
<path style=" stroke:none;fill-rule:nonzero;fill:rgb(0%,0%,0%);fill-opacity:1;" d="M 180.273438 31.34375 C 180.273438 37.429688 175.339844 42.363281 169.257812 42.363281 C 163.175781 42.363281 158.246094 37.429688 158.246094 31.34375 C 158.246094 25.257812 163.175781 20.324219 169.257812 20.324219 C 175.339844 20.324219 180.273438 25.257812 180.273438 31.34375 Z M 180.273438 31.34375 "/>
</g>
<mask id="mask19">
  <g filter="url(#alpha)">
<rect x="0" y="0" width="318" height="282" style="fill:rgb(0%,0%,0%);fill-opacity:0.101961;stroke:none;"/>
  </g>
</mask>
<clipPath id="clip20">
  <rect width="318" height="282"/>
</clipPath>
<g id="surface63" clip-path="url(#clip20)">
<path style=" stroke:none;fill-rule:nonzero;fill:rgb(0%,0%,0%);fill-opacity:1;" d="M 139.996094 17.175781 C 139.996094 23.449219 134.910156 28.539062 128.636719 28.539062 C 122.367188 28.539062 117.28125 23.449219 117.28125 17.175781 C 117.28125 10.898438 122.367188 5.8125 128.636719 5.8125 C 134.910156 5.8125 139.996094 10.898438 139.996094 17.175781 Z M 139.996094 17.175781 "/>
</g>
<mask id="mask20">
  <g filter="url(#alpha)">
<rect x="0" y="0" width="318" height="282" style="fill:rgb(0%,0%,0%);fill-opacity:0.101961;stroke:none;"/>
  </g>
</mask>
<clipPath id="clip21">
  <rect width="318" height="282"/>
</clipPath>
<g id="surface66" clip-path="url(#clip21)">
<path style=" stroke:none;fill-rule:nonzero;fill:rgb(0%,0%,0%);fill-opacity:1;" d="M 90.898438 42.519531 C 90.898438 48.226562 86.277344 52.851562 80.574219 52.851562 C 74.871094 52.851562 70.25 48.226562 70.25 42.519531 C 70.25 36.816406 74.871094 32.191406 80.574219 32.191406 C 86.277344 32.191406 90.898438 36.816406 90.898438 42.519531 Z M 90.898438 42.519531 "/>
</g>
<mask id="mask21">
  <g filter="url(#alpha)">
<rect x="0" y="0" width="318" height="282" style="fill:rgb(0%,0%,0%);fill-opacity:0.101961;stroke:none;"/>
  </g>
</mask>
<clipPath id="clip22">
  <rect width="318" height="282"/>
</clipPath>
<g id="surface69" clip-path="url(#clip22)">
<path style=" stroke:none;fill-rule:nonzero;fill:rgb(0%,0%,0%);fill-opacity:1;" d="M 73.25 65.996094 C 74.238281 66.625 75.351562 67.027344 76.324219 67.6875 C 77.292969 68.34375 78.144531 69.34375 78.171875 70.515625 C 78.199219 71.632812 77.484375 72.613281 76.796875 73.503906 L 68.410156 84.511719 L 72.6875 85.644531 C 71.996094 86.59375 71.820312 87.804688 71.464844 88.921875 C 71.105469 90.035156 70.429688 91.195312 69.289062 91.488281 C 68.257812 91.753906 67.175781 91.210938 66.109375 91.273438 C 65.320312 91.320312 64.578125 91.691406 63.789062 91.722656 C 62.773438 91.761719 61.832031 91.226562 60.984375 90.664062 C 59.097656 89.398438 57.226562 87.589844 57.238281 85.316406 C 57.285156 84.546875 57.4375 83.789062 57.699219 83.0625 C 58.933594 79.03125 60.214844 74.902344 62.773438 71.550781 C 64.152344 69.757812 65.832031 68.25 67.515625 66.746094 C 67.898438 66.363281 68.347656 66.050781 68.84375 65.828125 C 69.945312 65.414062 71.148438 65.925781 72.285156 66.253906 C 73.425781 66.585938 74.859375 66.632812 75.519531 65.660156 "/>
</g>
<mask id="mask22">
  <g filter="url(#alpha)">
<rect x="0" y="0" width="318" height="282" style="fill:rgb(0%,0%,0%);fill-opacity:0.101961;stroke:none;"/>
  </g>
</mask>
<clipPath id="clip23">
  <rect width="318" height="282"/>
</clipPath>
<g id="surface72" clip-path="url(#clip23)">
<path style=" stroke:none;fill-rule:nonzero;fill:rgb(0%,0%,0%);fill-opacity:1;" d="M 159.109375 28.203125 C 159.917969 29.324219 161.175781 30.050781 162.460938 30.527344 C 164.863281 31.417969 167.476562 31.574219 169.964844 30.96875 C 172.375 30.382812 174.890625 29.109375 177.152344 30.113281 C 177.683594 30.351562 178.183594 30.714844 178.765625 30.753906 C 179.332031 30.746094 179.886719 30.558594 180.34375 30.222656 C 181.738281 29.359375 183.019531 28.105469 183.632812 26.628906 C 183.632812 26.707031 183.632812 26.78125 183.652344 26.859375 C 183.757812 29.21875 181.988281 31.269531 179.988281 32.503906 C 179.53125 32.839844 178.976562 33.027344 178.410156 33.035156 C 177.828125 32.996094 177.328125 32.632812 176.792969 32.398438 C 174.53125 31.390625 172.003906 32.664062 169.605469 33.25 C 167.117188 33.851562 164.507812 33.699219 162.105469 32.808594 C 160.8125 32.328125 159.5625 31.605469 158.753906 30.484375 C 157.945312 29.367188 157.65625 27.800781 158.34375 26.597656 L 158.394531 26.511719 C 158.503906 27.121094 158.75 27.699219 159.109375 28.203125 Z M 159.109375 28.203125 "/>
<path style=" stroke:none;fill-rule:nonzero;fill:rgb(0%,0%,0%);fill-opacity:1;" d="M 159.566406 22.449219 C 159.59375 22.980469 159.273438 23.425781 158.96875 23.875 C 158.925781 23.761719 158.894531 23.648438 158.871094 23.53125 C 158.765625 22.914062 159.0625 22.316406 159.390625 21.773438 C 159.484375 21.988281 159.542969 22.21875 159.566406 22.449219 Z M 159.566406 22.449219 "/>
</g>
<mask id="mask23">
  <g filter="url(#alpha)">
<rect x="0" y="0" width="318" height="282" style="fill:rgb(0%,0%,0%);fill-opacity:0.101961;stroke:none;"/>
  </g>
</mask>
<clipPath id="clip24">
  <rect width="318" height="282"/>
</clipPath>
<g id="surface75" clip-path="url(#clip24)">
<path style=" stroke:none;fill-rule:nonzero;fill:rgb(0%,0%,0%);fill-opacity:1;" d="M 118.796875 5.230469 L 115.84375 13.695312 C 116.832031 14.382812 118.019531 14.699219 119.101562 15.226562 C 120.183594 15.753906 121.230469 16.601562 121.453125 17.789062 C 121.621094 18.6875 121.300781 19.71875 121.824219 20.472656 C 122.300781 21.160156 123.277344 21.277344 124.101562 21.160156 C 124.929688 21.046875 125.757812 20.757812 126.582031 20.886719 C 128.648438 21.199219 129.417969 22.46875 131.328125 20.902344 C 133.238281 19.339844 133.929688 21.195312 135.703125 22.195312 C 137.308594 23.097656 139.285156 23.003906 141.078125 22.589844 C 142.089844 22.402344 143.054688 21.996094 143.898438 21.402344 C 144.019531 21.304688 144.132812 21.199219 144.242188 21.089844 C 143.980469 21.652344 143.582031 22.144531 143.085938 22.523438 C 142.242188 23.117188 141.277344 23.523438 140.265625 23.714844 C 138.472656 24.125 136.476562 24.214844 134.890625 23.316406 C 133.117188 22.320312 132.386719 20.496094 130.515625 22.027344 C 128.640625 23.554688 127.828125 22.324219 125.773438 22.027344 C 124.945312 21.898438 124.121094 22.183594 123.289062 22.300781 C 122.460938 22.417969 121.492188 22.300781 121.011719 21.613281 C 120.488281 20.863281 120.808594 19.828125 120.640625 18.929688 C 120.421875 17.746094 119.371094 16.894531 118.289062 16.367188 C 117.210938 15.84375 116.019531 15.523438 115.03125 14.835938 L 117.996094 6.347656 C 118.339844 5.417969 118.71875 4.40625 119.410156 3.742188 C 119.167969 4.222656 118.964844 4.722656 118.796875 5.230469 Z M 118.796875 5.230469 "/>
</g>
<mask id="mask24">
  <g filter="url(#alpha)">
<rect x="0" y="0" width="318" height="282" style="fill:rgb(0%,0%,0%);fill-opacity:0.101961;stroke:none;"/>
  </g>
</mask>
<clipPath id="clip25">
  <rect width="318" height="282"/>
</clipPath>
<g id="surface78" clip-path="url(#clip25)">
<path style=" stroke:none;fill-rule:nonzero;fill:rgb(0%,0%,0%);fill-opacity:1;" d="M 80.640625 64.097656 C 81.398438 64.445312 82.359375 64.496094 82.839844 63.851562 C 83.382812 63.164062 82.984375 62.09375 82.339844 61.484375 C 81.695312 60.875 80.847656 60.519531 80.21875 59.894531 C 78.96875 58.65625 78.84375 56.691406 78.054688 55.121094 C 77.488281 54.015625 76.578125 53.09375 76.179688 51.921875 C 75.527344 50.007812 76.378906 47.9375 77.210938 46.09375 C 78.207031 43.90625 79.332031 41.566406 81.449219 40.421875 C 82.160156 40.039062 82.949219 39.8125 83.679688 39.460938 C 85.496094 38.589844 87.761719 36.527344 88.652344 34.6875 C 89.398438 33.132812 88.34375 31.625 87.09375 30.601562 C 87.703125 31 88.296875 31.414062 88.875 31.859375 C 90.199219 32.894531 91.394531 34.460938 90.59375 36.089844 C 89.707031 37.929688 87.441406 39.984375 85.621094 40.855469 C 84.894531 41.203125 84.105469 41.4375 83.390625 41.820312 C 81.277344 42.964844 80.152344 45.300781 79.15625 47.492188 C 78.320312 49.339844 77.46875 51.402344 78.125 53.320312 C 78.523438 54.496094 79.433594 55.417969 80 56.519531 C 80.796875 58.089844 80.914062 60.054688 82.164062 61.296875 C 82.792969 61.917969 83.640625 62.277344 84.285156 62.886719 C 84.925781 63.496094 85.316406 64.550781 84.785156 65.253906 C 84.257812 65.953125 82.996094 65.808594 82.203125 65.289062 C 81.671875 64.929688 81.1875 64.453125 80.640625 64.097656 Z M 80.640625 64.097656 "/>
<path style=" stroke:none;fill-rule:nonzero;fill:rgb(0%,0%,0%);fill-opacity:1;" d="M 59.765625 61.042969 L 64.359375 57.726562 C 64.71875 57.429688 65.128906 57.210938 65.570312 57.074219 C 66.519531 56.859375 67.445312 57.449219 68.234375 58.011719 L 77.871094 64.828125 C 78.257812 64.039062 78.273438 63.121094 77.917969 62.320312 C 78.800781 62.59375 79.445312 63.332031 80.210938 63.847656 C 80.101562 63.796875 79.984375 63.753906 79.867188 63.71875 C 80.226562 64.519531 80.210938 65.4375 79.824219 66.226562 L 70.1875 59.410156 C 69.394531 58.847656 68.464844 58.257812 67.523438 58.476562 C 67.082031 58.609375 66.667969 58.828125 66.3125 59.125 L 61.71875 62.445312 C 60.953125 62.996094 59.957031 63.570312 59.128906 63.109375 C 58.667969 62.828125 58.394531 62.320312 58.410156 61.78125 C 58.898438 61.609375 59.355469 61.359375 59.765625 61.042969 Z M 59.765625 61.042969 "/>
</g>
<mask id="mask25">
  <g filter="url(#alpha)">
<rect x="0" y="0" width="318" height="282" style="fill:rgb(0%,0%,0%);fill-opacity:0.101961;stroke:none;"/>
  </g>
</mask>
<clipPath id="clip26">
  <rect width="318" height="282"/>
</clipPath>
<g id="surface81" clip-path="url(#clip26)">
<path style=" stroke:none;fill-rule:nonzero;fill:rgb(0%,0%,0%);fill-opacity:1;" d="M 174.550781 83.53125 C 174.550781 83.53125 154.832031 85.113281 150.910156 82.316406 L 168.949219 79.535156 Z M 174.550781 83.53125 "/>
</g>
<mask id="mask26">
  <g filter="url(#alpha)">
<rect x="0" y="0" width="318" height="282" style="fill:rgb(0%,0%,0%);fill-opacity:0.101961;stroke:none;"/>
  </g>
</mask>
<clipPath id="clip27">
  <rect width="318" height="282"/>
</clipPath>
<g id="surface84" clip-path="url(#clip27)">
<path style=" stroke:none;fill-rule:nonzero;fill:rgb(0%,0%,0%);fill-opacity:1;" d="M 109.253906 79.675781 L 98.183594 88.695312 L 83.941406 86.144531 L 93.53125 78.613281 Z M 109.253906 79.675781 "/>
</g>
<mask id="mask27">
  <g filter="url(#alpha)">
<rect x="0" y="0" width="318" height="282" style="fill:rgb(0%,0%,0%);fill-opacity:0.101961;stroke:none;"/>
  </g>
</mask>
<clipPath id="clip28">
  <rect width="318" height="282"/>
</clipPath>
<g id="surface87" clip-path="url(#clip28)">
<path style=" stroke:none;fill-rule:nonzero;fill:rgb(0%,0%,0%);fill-opacity:1;" d="M 109.496094 78.152344 L 98.421875 87.171875 L 84.175781 84.625 L 93.773438 77.089844 Z M 109.496094 78.152344 "/>
</g>
</defs>
<g id="surface1">
<use xlink:href="#surface6" mask="url(#mask0)"/>
<use xlink:href="#surface9" mask="url(#mask1)"/>
<use xlink:href="#surface12" mask="url(#mask2)"/>
<use xlink:href="#surface15" mask="url(#mask3)"/>
<use xlink:href="#surface18" mask="url(#mask4)"/>
<use xlink:href="#surface21" mask="url(#mask5)"/>
<path style=" stroke:none;fill-rule:nonzero;fill:rgb(25.882353%,60%,88.235294%);fill-opacity:1;" d="M 270.308594 172.164062 C 270.308594 172.164062 281.464844 135.578125 268.5625 120.921875 C 258.925781 109.960938 247.953125 111.28125 243.050781 112.628906 C 240.480469 113.3125 238.339844 115.089844 237.199219 117.492188 C 235.476562 121.195312 235.796875 127.203125 247.902344 134.21875 C 268.175781 145.960938 269.441406 162.074219 269.441406 162.074219 Z M 270.308594 172.164062 "/>
<path style="fill:none;stroke-width:1;stroke-linecap:butt;stroke-linejoin:miter;stroke:rgb(33.72549%,34.901961%,52.941176%);stroke-opacity:1;stroke-miterlimit:10;" d="M 849.19523 382.728925 C 849.19523 382.728925 944.764216 412.610989 923.334971 540.568394 " transform="matrix(0.344156,0,0,0.344322,-47.462532,-13.965714)"/>
<path style="fill:none;stroke-width:1;stroke-linecap:butt;stroke-linejoin:miter;stroke:rgb(33.72549%,34.901961%,52.941176%);stroke-opacity:1;stroke-miterlimit:10;" d="M 905.00434 393.438366 C 905.00434 393.438366 891.838066 402.309958 896.003603 415.628692 " transform="matrix(0.344156,0,0,0.344322,-47.462532,-13.965714)"/>
<path style="fill:none;stroke-width:1;stroke-linecap:butt;stroke-linejoin:miter;stroke:rgb(33.72549%,34.901961%,52.941176%);stroke-opacity:1;stroke-miterlimit:10;" d="M 858.786179 401.33431 C 858.786179 401.33431 866.788096 393.154747 876.6174 397.658612 " transform="matrix(0.344156,0,0,0.344322,-47.462532,-13.965714)"/>
<path style="fill:none;stroke-width:1;stroke-linecap:butt;stroke-linejoin:miter;stroke:rgb(33.72549%,34.901961%,52.941176%);stroke-opacity:1;stroke-miterlimit:10;" d="M 896.559764 442.481709 C 896.559764 442.481709 910.679458 435.323173 914.334233 444.285524 " transform="matrix(0.344156,0,0,0.344322,-47.462532,-13.965714)"/>
<path style="fill:none;stroke-width:1;stroke-linecap:butt;stroke-linejoin:miter;stroke:rgb(33.72549%,34.901961%,52.941176%);stroke-opacity:1;stroke-miterlimit:10;" d="M 931.50714 457.422741 C 931.50714 457.422741 920.89467 456.58323 920.713066 461.654332 " transform="matrix(0.344156,0,0,0.344322,-47.462532,-13.965714)"/>
<path style=" stroke:none;fill-rule:nonzero;fill:rgb(25.882353%,60%,88.235294%);fill-opacity:1;" d="M 270.757812 172.457031 C 270.757812 172.457031 257.679688 145.867188 254.105469 146.445312 C 252.382812 146.722656 251.613281 148.402344 251.257812 150.085938 C 250.816406 152.265625 251.066406 154.527344 251.96875 156.558594 C 253.824219 160.816406 258.804688 168.898438 270.757812 172.457031 Z M 270.757812 172.457031 "/>
<path style="fill:none;stroke-width:1;stroke-linecap:butt;stroke-linejoin:miter;stroke:rgb(33.72549%,34.901961%,52.941176%);stroke-opacity:1;stroke-miterlimit:10;" d="M 876.526598 480.543336 C 876.526598 480.543336 916.377276 538.322134 924.084086 540.863358 " transform="matrix(0.344156,0,0,0.344322,-47.462532,-13.965714)"/>
<path style="fill:none;stroke-width:1;stroke-linecap:butt;stroke-linejoin:miter;stroke:rgb(33.72549%,34.901961%,52.941176%);stroke-opacity:1;stroke-miterlimit:10;" d="M 734.961822 449.00241 L 744.257665 449.00241 " transform="matrix(0.344156,0,0,0.344322,0,0)"/>
<path style="fill:none;stroke-width:1;stroke-linecap:butt;stroke-linejoin:miter;stroke:rgb(33.72549%,34.901961%,52.941176%);stroke-opacity:1;stroke-miterlimit:10;" d="M 746.096403 470.137675 L 760.681456 470.761636 " transform="matrix(0.344156,0,0,0.344322,0,0)"/>
<path style="fill:none;stroke-width:1;stroke-linecap:butt;stroke-linejoin:miter;stroke:rgb(33.72549%,34.901961%,52.941176%);stroke-opacity:1;stroke-miterlimit:10;" d="M 754.972288 453.234001 L 753.394605 460.823637 " transform="matrix(0.344156,0,0,0.344322,0,0)"/>
<path style="fill:none;stroke-width:1;stroke-linecap:butt;stroke-linejoin:miter;stroke:rgb(33.72549%,34.901961%,52.941176%);stroke-opacity:1;stroke-miterlimit:10;" d="M 770.46536 476.343251 L 770.192954 483.240858 " transform="matrix(0.344156,0,0,0.344322,0,0)"/>
<path style=" stroke:none;fill-rule:nonzero;fill:rgb(25.882353%,60%,88.235294%);fill-opacity:1;" d="M 270.371094 172.457031 C 270.371094 172.457031 283.449219 145.867188 287.027344 146.445312 C 288.746094 146.722656 289.519531 148.402344 289.871094 150.085938 C 290.3125 152.265625 290.0625 154.527344 289.160156 156.558594 C 287.304688 160.816406 282.324219 168.898438 270.371094 172.457031 Z M 270.371094 172.457031 "/>
<path style="fill:none;stroke-width:1;stroke-linecap:butt;stroke-linejoin:miter;stroke:rgb(33.72549%,34.901961%,52.941176%);stroke-opacity:1;stroke-miterlimit:10;" d="M 971.630224 480.543336 C 971.630224 480.543336 931.779546 538.322134 924.084086 540.863358 " transform="matrix(0.344156,0,0,0.344322,-47.462532,-13.965714)"/>
<path style="fill:none;stroke-width:1;stroke-linecap:butt;stroke-linejoin:miter;stroke:rgb(33.72549%,34.901961%,52.941176%);stroke-opacity:1;stroke-miterlimit:10;" d="M 837.375 449.00241 L 828.079157 449.00241 " transform="matrix(0.344156,0,0,0.344322,0,0)"/>
<path style="fill:none;stroke-width:1;stroke-linecap:butt;stroke-linejoin:miter;stroke:rgb(33.72549%,34.901961%,52.941176%);stroke-opacity:1;stroke-miterlimit:10;" d="M 826.240419 470.137675 L 811.655366 470.761636 " transform="matrix(0.344156,0,0,0.344322,0,0)"/>
<path style="fill:none;stroke-width:1;stroke-linecap:butt;stroke-linejoin:miter;stroke:rgb(33.72549%,34.901961%,52.941176%);stroke-opacity:1;stroke-miterlimit:10;" d="M 817.364534 453.234001 L 818.953567 460.823637 " transform="matrix(0.344156,0,0,0.344322,0,0)"/>
<path style="fill:none;stroke-width:1;stroke-linecap:butt;stroke-linejoin:miter;stroke:rgb(33.72549%,34.901961%,52.941176%);stroke-opacity:1;stroke-miterlimit:10;" d="M 801.860112 476.343251 L 802.155218 483.240858 " transform="matrix(0.344156,0,0,0.344322,0,0)"/>
<path style=" stroke:none;fill-rule:nonzero;fill:rgb(25.882353%,60%,88.235294%);fill-opacity:1;" d="M 247.9375 178.667969 C 247.582031 178.378906 247.324219 177.988281 247.195312 177.546875 C 247.074219 177.089844 247.292969 176.613281 247.714844 176.398438 C 248.191406 176.21875 248.699219 176.546875 249.089844 176.886719 C 249.480469 177.222656 249.917969 177.597656 250.425781 177.527344 C 249.898438 177.046875 249.660156 176.324219 249.796875 175.625 C 249.820312 175.480469 249.878906 175.347656 249.972656 175.234375 C 250.234375 174.953125 250.71875 175.078125 251.035156 175.296875 C 252.042969 176.011719 252.324219 177.382812 252.332031 178.613281 C 252.378906 178.15625 252.378906 177.695312 252.332031 177.238281 C 252.292969 176.773438 252.484375 176.320312 252.84375 176.027344 C 253.082031 175.898438 253.351562 175.832031 253.625 175.84375 C 254.082031 175.777344 254.542969 175.910156 254.894531 176.203125 C 255.277344 176.617188 255.179688 177.308594 254.84375 177.761719 C 254.46875 178.179688 254.023438 178.527344 253.53125 178.796875 C 253.15625 179.019531 252.835938 179.324219 252.59375 179.691406 C 252.566406 179.742188 252.542969 179.796875 252.523438 179.851562 L 249.679688 179.851562 C 249.050781 179.535156 248.460938 179.140625 247.9375 178.667969 Z M 247.9375 178.667969 "/>
<path style=" stroke:none;fill-rule:nonzero;fill:rgb(25.882353%,60%,88.235294%);fill-opacity:1;" d="M 297.726562 167.957031 C 297.371094 167.667969 297.109375 167.277344 296.980469 166.835938 C 296.863281 166.378906 297.082031 165.902344 297.503906 165.691406 C 297.980469 165.507812 298.488281 165.839844 298.878906 166.171875 C 299.269531 166.507812 299.710938 166.890625 300.21875 166.816406 C 299.6875 166.339844 299.445312 165.613281 299.585938 164.914062 C 299.609375 164.769531 299.667969 164.636719 299.761719 164.527344 C 300.027344 164.246094 300.507812 164.367188 300.824219 164.589844 C 301.832031 165.296875 302.113281 166.65625 302.121094 167.90625 C 302.171875 167.449219 302.171875 166.984375 302.121094 166.527344 C 302.082031 166.066406 302.273438 165.613281 302.632812 165.320312 C 302.875 165.191406 303.144531 165.128906 303.414062 165.136719 C 303.867188 165.066406 304.328125 165.191406 304.683594 165.480469 C 305.070312 165.890625 304.96875 166.582031 304.632812 167.039062 C 304.261719 167.460938 303.816406 167.820312 303.320312 168.089844 C 302.945312 168.3125 302.625 168.621094 302.382812 168.988281 C 302.355469 169.035156 302.332031 169.089844 302.3125 169.144531 L 299.46875 169.144531 C 298.839844 168.828125 298.25 168.429688 297.726562 167.957031 Z M 297.726562 167.957031 "/>
<path style=" stroke:none;fill-rule:nonzero;fill:rgb(25.882353%,60%,88.235294%);fill-opacity:1;" d="M 281.128906 178.667969 C 280.777344 178.378906 280.515625 177.988281 280.386719 177.546875 C 280.269531 177.089844 280.484375 176.613281 280.90625 176.398438 C 281.386719 176.21875 281.894531 176.546875 282.285156 176.886719 C 282.671875 177.222656 283.113281 177.597656 283.617188 177.527344 C 283.089844 177.050781 282.851562 176.328125 282.988281 175.625 C 283.011719 175.480469 283.074219 175.347656 283.164062 175.234375 C 283.429688 174.953125 283.910156 175.078125 284.226562 175.296875 C 285.238281 176.011719 285.519531 177.382812 285.527344 178.613281 C 285.582031 178.15625 285.585938 177.695312 285.542969 177.238281 C 285.503906 176.773438 285.695312 176.320312 286.054688 176.027344 C 286.292969 175.898438 286.5625 175.832031 286.835938 175.84375 C 287.292969 175.777344 287.753906 175.910156 288.105469 176.203125 C 288.488281 176.617188 288.390625 177.308594 288.054688 177.761719 C 287.679688 178.179688 287.234375 178.527344 286.742188 178.796875 C 286.367188 179.019531 286.046875 179.324219 285.804688 179.691406 C 285.777344 179.742188 285.753906 179.796875 285.734375 179.851562 L 282.894531 179.851562 C 282.253906 179.539062 281.660156 179.140625 281.128906 178.667969 Z M 281.128906 178.667969 "/>
<path style=" stroke:none;fill-rule:nonzero;fill:rgb(25.882353%,60%,88.235294%);fill-opacity:1;" d="M 234.074219 157.019531 C 234.074219 157.019531 233.007812 158.414062 234.566406 160.515625 C 236.125 162.621094 237.40625 164.398438 236.890625 165.710938 C 236.890625 165.710938 234.539062 161.804688 232.625 161.75 C 230.710938 161.695312 231.96875 159.371094 234.074219 157.019531 Z M 234.074219 157.019531 "/>
<use xlink:href="#surface24" mask="url(#mask6)"/>
<path style=" stroke:none;fill-rule:nonzero;fill:rgb(100%,81.568627%,21.568627%);fill-opacity:1;" d="M 232.09375 158.792969 C 232.09375 159.285156 232.148438 159.683594 232.214844 159.683594 C 232.285156 159.683594 232.335938 159.285156 232.335938 158.792969 C 232.335938 158.300781 232.265625 158.535156 232.203125 158.535156 C 232.136719 158.535156 232.09375 158.304688 232.09375 158.792969 Z M 232.09375 158.792969 "/>
<path style=" stroke:none;fill-rule:nonzero;fill:rgb(100%,81.568627%,21.568627%);fill-opacity:1;" d="M 231.410156 159.378906 C 231.839844 159.617188 232.21875 159.757812 232.25 159.699219 C 232.28125 159.640625 231.960938 159.402344 231.53125 159.167969 C 231.101562 158.933594 231.269531 159.101562 231.234375 159.167969 C 231.199219 159.230469 230.980469 159.144531 231.410156 159.378906 Z M 231.410156 159.378906 "/>
<path style=" stroke:none;fill-rule:nonzero;fill:rgb(25.882353%,60%,88.235294%);fill-opacity:1;" d="M 239.699219 157.019531 C 239.699219 157.019531 240.769531 158.414062 239.207031 160.515625 C 237.648438 162.621094 236.371094 164.398438 236.890625 165.710938 C 236.890625 165.710938 239.238281 161.804688 241.148438 161.75 C 243.0625 161.695312 241.808594 159.371094 239.699219 157.019531 Z M 239.699219 157.019531 "/>
<use xlink:href="#surface27" mask="url(#mask7)"/>
<path style=" stroke:none;fill-rule:nonzero;fill:rgb(100%,81.568627%,21.568627%);fill-opacity:1;" d="M 241.683594 158.792969 C 241.683594 159.285156 241.628906 159.683594 241.558594 159.683594 C 241.492188 159.683594 241.4375 159.285156 241.4375 158.792969 C 241.4375 158.300781 241.507812 158.535156 241.574219 158.535156 C 241.640625 158.535156 241.683594 158.304688 241.683594 158.792969 Z M 241.683594 158.792969 "/>
<path style=" stroke:none;fill-rule:nonzero;fill:rgb(100%,81.568627%,21.568627%);fill-opacity:1;" d="M 242.363281 159.378906 C 241.933594 159.617188 241.554688 159.757812 241.523438 159.699219 C 241.496094 159.640625 241.8125 159.402344 242.246094 159.167969 C 242.675781 158.933594 242.507812 159.101562 242.539062 159.167969 C 242.574219 159.230469 242.796875 159.144531 242.363281 159.378906 Z M 242.363281 159.378906 "/>
<path style=" stroke:none;fill-rule:nonzero;fill:rgb(65.882353%,65.882353%,65.882353%);fill-opacity:1;" d="M 241.34375 165.53125 C 241.34375 165.53125 238.367188 165.441406 237.46875 164.800781 C 236.570312 164.160156 232.882812 163.394531 232.648438 164.421875 C 232.414062 165.445312 228.175781 169.523438 231.535156 169.550781 C 234.894531 169.578125 239.351562 169.027344 240.25 168.480469 C 241.144531 167.933594 241.34375 165.53125 241.34375 165.53125 Z M 241.34375 165.53125 "/>
<use xlink:href="#surface30" mask="url(#mask8)"/>
<use xlink:href="#surface33" mask="url(#mask9)"/>
<use xlink:href="#surface36" mask="url(#mask10)"/>
<use xlink:href="#surface39" mask="url(#mask11)"/>
<use xlink:href="#surface42" mask="url(#mask12)"/>
<use xlink:href="#surface45" mask="url(#mask13)"/>
<use xlink:href="#surface48" mask="url(#mask14)"/>
<path style=" stroke:none;fill-rule:nonzero;fill:rgb(39.607843%,38.039216%,49.019608%);fill-opacity:1;" d="M 154.925781 119.769531 C 154.484375 119.808594 154.039062 119.789062 153.601562 119.859375 C 152.867188 120.003906 152.167969 120.285156 151.535156 120.6875 C 148.402344 122.472656 145.445312 124.921875 144.148438 128.285156 C 144.042969 128.492188 144.007812 128.726562 144.054688 128.957031 C 144.128906 129.144531 144.257812 129.308594 144.417969 129.429688 L 145.636719 130.539062 C 145.789062 130.699219 145.972656 130.828125 146.175781 130.917969 C 146.503906 131.003906 146.851562 130.992188 147.175781 130.886719 C 150.523438 130.121094 154.082031 129.234375 156.433594 126.726562 C 157.546875 125.539062 158.578125 123.90625 160.21875 123.859375 C 160.90625 123.859375 161.550781 124.125 162.226562 124.203125 C 162.90625 124.28125 163.722656 123.992188 163.882812 123.332031 C 163.9375 123.003906 163.898438 122.667969 163.773438 122.359375 L 162.761719 118.988281 C 162.484375 118.066406 159.707031 118.015625 158.78125 118.183594 C 157.371094 118.425781 156.421875 119.632812 154.925781 119.769531 Z M 154.925781 119.769531 "/>
<path style=" stroke:none;fill-rule:nonzero;fill:rgb(39.607843%,38.039216%,49.019608%);fill-opacity:1;" d="M 166.847656 138.757812 C 166.796875 139.910156 166.890625 141.078125 166.703125 142.222656 C 166.535156 143.125 166.246094 144 165.84375 144.820312 C 165.226562 146.144531 164.441406 147.386719 163.503906 148.507812 C 162.632812 149.542969 161.589844 150.511719 160.300781 150.921875 C 159.011719 151.328125 157.421875 151.035156 156.617188 149.945312 C 155.960938 149.0625 155.929688 147.878906 155.976562 146.773438 C 156.09375 144.058594 156.523438 141.304688 157.742188 138.871094 C 158.261719 137.839844 158.925781 136.855469 159.460938 135.8125 C 160.578125 133.644531 161.214844 131.078125 163.136719 129.582031 C 164.34375 130.140625 165.632812 130.496094 166.957031 130.632812 C 167.46875 130.6875 168.9375 130.722656 169.109375 131.378906 C 169.226562 131.824219 168.261719 133.066406 168.074219 133.503906 C 167.339844 135.164062 166.925781 136.945312 166.847656 138.757812 Z M 166.847656 138.757812 "/>
<path style=" stroke:none;fill-rule:nonzero;fill:rgb(24.705882%,23.921569%,33.72549%);fill-opacity:1;" d="M 153.203125 89.101562 C 153.617188 90.152344 154.140625 91.1875 154.238281 92.308594 C 154.304688 92.996094 154.238281 93.6875 154.238281 94.375 C 154.292969 95.320312 154.453125 96.253906 154.703125 97.164062 L 156.621094 105.015625 C 156.90625 106.1875 157.191406 107.394531 157.046875 108.59375 C 156.945312 109.390625 156.65625 110.164062 156.660156 110.96875 C 156.695312 111.578125 156.792969 112.179688 156.949219 112.769531 C 157.3125 114.589844 157.210938 116.472656 156.660156 118.242188 C 156.601562 118.378906 156.582031 118.523438 156.601562 118.667969 C 156.648438 118.890625 156.867188 119.027344 157.0625 119.136719 C 159.125 120.265625 161.375 121.015625 163.703125 121.347656 C 165.804688 116.347656 167.273438 111.101562 168.074219 105.734375 C 168.5625 102.484375 168.800781 99.191406 169.429688 95.964844 C 169.441406 95.78125 169.519531 95.605469 169.652344 95.46875 C 169.886719 95.273438 170.238281 95.398438 170.515625 95.527344 C 174.03125 97.222656 177.417969 99.175781 180.636719 101.382812 C 182.929688 98.410156 183.785156 94.574219 182.972656 90.910156 C 182.570312 89.351562 181.992188 87.839844 181.253906 86.40625 C 180.464844 84.664062 179.484375 83.015625 178.328125 81.496094 C 175.773438 78.292969 172.03125 76.246094 168.175781 74.859375 C 165.832031 74.011719 163.417969 73.386719 161.011719 72.746094 C 159.660156 72.382812 157.398438 71.207031 156.089844 72.121094 C 154.710938 73.074219 153.796875 75.441406 153.230469 76.941406 C 152.535156 78.804688 152.15625 80.769531 152.109375 82.757812 C 152.054688 84.921875 152.425781 87.078125 153.203125 89.101562 Z M 153.203125 89.101562 "/>
<path style=" stroke:none;fill-rule:nonzero;fill:rgb(24.705882%,23.921569%,33.72549%);fill-opacity:1;" d="M 180.871094 98.566406 C 180.152344 99.351562 180.757812 100.605469 180.621094 101.664062 C 180.53125 102.144531 180.359375 102.601562 180.113281 103.023438 L 176.820312 109.496094 C 176.269531 110.464844 175.859375 111.507812 175.59375 112.59375 C 175.144531 114.929688 176.070312 117.550781 174.886719 119.613281 C 174.503906 120.277344 173.914062 120.851562 173.753906 121.601562 C 173.636719 122.148438 173.753906 122.71875 173.695312 123.273438 C 173.617188 123.925781 173.269531 124.511719 173.074219 125.136719 C 172.925781 125.738281 172.820312 126.351562 172.757812 126.96875 C 172.339844 129.601562 170.960938 131.988281 168.886719 133.664062 C 167.699219 134.667969 166.175781 135.1875 164.621094 135.117188 C 163.085938 134.984375 161.558594 133.941406 161.246094 132.433594 C 161.140625 131.921875 161.160156 131.347656 160.839844 130.933594 C 160.386719 130.335938 159.429688 130.3125 158.992188 129.703125 L 160.6875 126.914062 C 161.214844 126.050781 161.75 125.148438 161.835938 124.136719 C 161.9375 122.902344 161.34375 121.667969 161.558594 120.449219 C 161.738281 119.398438 162.492188 118.523438 162.71875 117.484375 C 163.003906 116.191406 162.4375 114.886719 162.132812 113.597656 C 161.382812 110.425781 162.222656 107.121094 163.058594 103.957031 C 164.167969 99.769531 165.308594 95.519531 167.558594 91.816406 C 172.050781 94.238281 176.179688 96.5625 180.871094 98.566406 Z M 180.871094 98.566406 "/>
<path style=" stroke:none;fill-rule:nonzero;fill:rgb(25.882353%,60%,88.235294%);fill-opacity:1;" d="M 180.914062 32.980469 C 181.179688 33.710938 181.035156 34.519531 180.984375 35.292969 C 180.863281 37.015625 181.230469 38.734375 181.144531 40.480469 C 181.0625 42.226562 180.527344 43.894531 180.15625 45.589844 C 179.097656 50.4375 179.351562 55.484375 178.398438 60.347656 C 177.214844 66.375 174.199219 71.988281 173.601562 78.101562 C 173.414062 80.042969 173.4375 82.125 172.375 83.761719 C 166.054688 80.980469 160.082031 77.46875 154.574219 73.304688 C 155.785156 64.3125 156.984375 55.277344 156.820312 46.207031 C 156.742188 45.113281 156.820312 44.015625 157.046875 42.945312 C 157.335938 42.042969 157.75 41.1875 158.273438 40.402344 C 159.605469 38.238281 161.070312 36.15625 162.535156 34.082031 C 163.46875 32.75 164.480469 31.359375 165.976562 30.734375 C 167.46875 30.109375 169.238281 30.390625 170.867188 30.6875 C 172.824219 31.042969 174.78125 31.402344 176.738281 31.761719 C 177.960938 31.984375 180.390625 31.558594 180.914062 32.980469 Z M 180.914062 32.980469 "/>
<path style=" stroke:none;fill-rule:nonzero;fill:rgb(74.509804%,43.529412%,44.705882%);fill-opacity:1;" d="M 133.789062 67.429688 C 132.984375 66.625 132.109375 65.898438 131.171875 65.257812 C 132.394531 63.769531 132.152344 61.617188 132.453125 59.710938 C 132.695312 58.476562 133.070312 57.265625 133.5625 56.105469 C 133.6875 55.78125 133.863281 55.417969 134.203125 55.332031 C 134.414062 55.308594 134.625 55.339844 134.816406 55.429688 C 135.847656 55.792969 138.003906 55.773438 138.804688 56.441406 C 139.773438 57.253906 138.886719 58.953125 138.523438 59.96875 C 138.265625 60.652344 134.300781 67.945312 133.789062 67.429688 Z M 133.789062 67.429688 "/>
<path style=" stroke:none;fill-rule:nonzero;fill:rgb(39.607843%,38.039216%,49.019608%);fill-opacity:1;" d="M 136.785156 131.730469 C 137.304688 132.570312 137.640625 133.507812 137.78125 134.484375 C 137.863281 135.464844 137.503906 136.535156 136.671875 137.050781 C 135.839844 137.566406 134.644531 137.394531 133.652344 137.085938 C 129.402344 135.703125 125.941406 132.570312 124.136719 128.476562 C 123.824219 127.753906 123.550781 126.984375 122.996094 126.429688 C 122.585938 126.066406 122.128906 125.757812 121.636719 125.515625 C 120.285156 124.75 118.980469 123.746094 118.355469 122.320312 C 117.730469 120.894531 118.011719 118.992188 119.308594 118.144531 C 120.125 117.671875 121.097656 117.546875 122.007812 117.800781 C 122.902344 118.054688 123.761719 118.429688 124.558594 118.910156 C 125.894531 119.636719 127.527344 120.265625 128.691406 121.234375 C 129.722656 122.082031 130.648438 123.234375 131.53125 124.234375 C 132.539062 125.386719 133.484375 126.59375 134.363281 127.851562 C 134.644531 128.21875 137.023438 131.398438 136.785156 131.730469 Z M 136.785156 131.730469 "/>
<path style=" stroke:none;fill-rule:nonzero;fill:rgb(39.607843%,38.039216%,49.019608%);fill-opacity:1;" d="M 111.558594 124.503906 C 111.441406 126.234375 111.136719 127.949219 110.644531 129.617188 C 110.367188 130.554688 110 131.527344 109.226562 132.125 C 108.570312 132.546875 107.828125 132.820312 107.054688 132.917969 C 106.78125 132.992188 106.5 133.007812 106.222656 132.96875 C 105.75 132.871094 105.410156 132.460938 105.117188 132.070312 C 103.96875 130.550781 102.851562 128.941406 102.367188 127.097656 C 101.675781 124.421875 102.367188 121.550781 103.558594 119.054688 C 103.988281 118.046875 104.613281 117.132812 105.402344 116.371094 C 106.371094 115.570312 107.539062 115.046875 108.78125 114.851562 C 110.050781 114.597656 111.609375 114.054688 111.703125 115.597656 C 111.839844 118.566406 111.789062 121.542969 111.558594 124.503906 Z M 111.558594 124.503906 "/>
<path style=" stroke:none;fill-rule:nonzero;fill:rgb(24.705882%,23.921569%,33.72549%);fill-opacity:1;" d="M 130.601562 59.785156 C 132.976562 61.015625 135.609375 62.578125 136.105469 65.203125 C 136.414062 66.808594 135.824219 68.453125 135.921875 70.082031 C 136.007812 71.519531 136.609375 72.90625 136.535156 74.339844 C 136.453125 75.015625 136.339844 75.6875 136.1875 76.351562 C 135.984375 77.625 136.105469 78.917969 136.054688 80.203125 C 135.941406 83.09375 134.972656 85.878906 134.507812 88.730469 C 134.175781 90.769531 134.097656 92.839844 134.277344 94.898438 C 134.390625 96.226562 134.621094 97.550781 134.621094 98.886719 C 134.621094 99.847656 134.539062 100.808594 134.382812 101.757812 C 133.921875 104.738281 132.992188 107.628906 131.628906 110.320312 C 129.972656 113.582031 130.207031 117.789062 130.382812 121.441406 C 130.460938 121.945312 130.394531 122.460938 130.199219 122.929688 C 129.765625 123.71875 128.683594 123.832031 127.789062 123.757812 C 124.46875 123.453125 121.394531 121.894531 119.183594 119.398438 C 118.863281 119.082031 118.644531 118.679688 118.558594 118.238281 C 118.484375 117.5 119.074219 116.894531 119.5 116.285156 C 120.953125 114.21875 120.585938 111.417969 120.757812 108.882812 C 120.882812 107.035156 121.324219 105.222656 122.0625 103.527344 C 122.488281 102.546875 123.023438 101.578125 123.117188 100.511719 C 123.207031 99.515625 122.90625 98.53125 122.605469 97.582031 L 121.574219 94.304688 C 119.972656 89.210938 118.363281 84.085938 115.9375 79.332031 C 114.351562 80.367188 113.210938 81.964844 112.753906 83.808594 C 111.855469 87.050781 113.136719 90.675781 111.910156 93.792969 C 111.707031 94.226562 111.535156 94.671875 111.402344 95.132812 C 111.332031 95.527344 111.304688 95.933594 111.320312 96.335938 C 111.351562 99.691406 111.558594 103.042969 111.933594 106.378906 C 111.953125 106.882812 112.09375 107.375 112.347656 107.8125 C 112.550781 108.105469 112.84375 108.324219 113.0625 108.601562 C 113.664062 109.382812 113.550781 110.480469 113.40625 111.453125 L 112.71875 116.0625 C 112.707031 116.292969 112.628906 116.519531 112.496094 116.710938 C 112.332031 116.867188 112.128906 116.976562 111.910156 117.027344 C 109.722656 117.707031 107.417969 117.917969 105.144531 117.648438 C 104.472656 117.570312 103.863281 117.117188 103.300781 116.738281 C 103.242188 116.050781 104.101562 115.59375 104.132812 114.90625 C 104.097656 114.5 103.910156 114.125 103.605469 113.855469 C 102.324219 112.40625 100.796875 110.871094 100.808594 108.941406 C 100.808594 108.433594 100.929688 107.929688 100.914062 107.421875 C 100.867188 106.125 99.972656 105.011719 99.660156 103.761719 C 99.273438 102.214844 99.789062 100.609375 99.984375 99.03125 C 100.253906 96.902344 99.9375 94.746094 99.640625 92.621094 L 98.488281 84.828125 C 98.351562 83.617188 98.113281 82.421875 97.769531 81.253906 C 97.335938 80.101562 96.828125 78.984375 96.246094 77.898438 C 95.144531 75.660156 94.238281 73.332031 93.339844 71.011719 C 93.050781 70.382812 92.871094 69.707031 92.804688 69.019531 C 92.753906 67.839844 93.363281 66.722656 94.121094 65.8125 C 95.539062 64.125 97.472656 62.949219 99.625 62.472656 C 99.984375 62.375 100.363281 62.359375 100.730469 62.429688 C 101.039062 62.53125 101.328125 62.683594 101.589844 62.878906 C 106.980469 66.410156 113.714844 67.207031 119.785156 65.039062 C 120.128906 65.300781 120.765625 65.1875 121.160156 65 C 122.265625 64.496094 123.167969 63.652344 124.136719 62.933594 C 125.945312 61.566406 128.378906 60.261719 130.601562 59.785156 Z M 130.601562 59.785156 "/>
<path style=" stroke:none;fill-rule:nonzero;fill:rgb(24.705882%,23.921569%,33.72549%);fill-opacity:1;" d="M 59.265625 148.210938 C 59.449219 148.738281 59.726562 149.226562 60.078125 149.660156 C 61.324219 151.285156 63.0625 152.582031 63.863281 154.480469 C 64.035156 154.886719 64.15625 155.3125 64.3125 155.726562 C 64.785156 156.972656 65.550781 158.085938 66.550781 158.96875 C 67.3125 159.601562 68.136719 160.152344 69.015625 160.605469 C 70.539062 161.433594 72.183594 162.1875 73.910156 162.140625 C 74.257812 162.132812 74.605469 162.09375 74.945312 162.015625 C 75.480469 161.90625 76 161.714844 76.480469 161.453125 C 77.59375 160.839844 78.546875 159.640625 78.328125 158.390625 C 78.28125 158.152344 78.207031 157.921875 78.101562 157.703125 C 77.921875 157.355469 77.710938 157.023438 77.472656 156.707031 C 76.890625 155.902344 76.292969 155.074219 75.441406 154.558594 C 74.484375 153.972656 73.28125 153.828125 72.421875 153.105469 C 72.082031 152.800781 71.789062 152.445312 71.550781 152.054688 C 70.769531 150.855469 70.1875 149.535156 69.828125 148.152344 C 69.566406 147.117188 69.390625 145.984375 68.636719 145.226562 C 67.882812 144.472656 66.847656 144.296875 65.84375 144.125 C 65.503906 144.054688 65.15625 144.023438 64.8125 144.027344 C 64.320312 144.042969 63.808594 144.183594 63.347656 143.953125 C 62.886719 143.722656 62.734375 143.394531 62.175781 143.441406 C 61.730469 143.5 61.3125 143.683594 60.96875 143.96875 C 59.660156 144.9375 58.792969 146.65625 59.265625 148.210938 Z M 59.265625 148.210938 "/>
<path style=" stroke:none;fill-rule:nonzero;fill:rgb(98.431373%,74.509804%,74.509804%);fill-opacity:1;" d="M 71.496094 149.777344 C 71.71875 150.945312 72.0625 152.1875 72.964844 152.949219 C 73.539062 153.445312 74.339844 153.753906 74.625 154.453125 C 74.914062 155.152344 74.542969 156.03125 74.070312 156.671875 C 73.460938 157.480469 72.710938 158.171875 71.851562 158.703125 C 71.125 159.15625 70.253906 159.5 69.417969 159.300781 C 68.726562 159.140625 68.183594 158.644531 67.671875 158.164062 C 66.496094 157.074219 65.289062 155.941406 64.628906 154.476562 C 63.941406 152.933594 63.90625 151.148438 63.15625 149.628906 C 62.71875 148.742188 62.042969 147.96875 61.78125 147.019531 C 61.660156 146.675781 61.660156 146.300781 61.78125 145.957031 C 62.042969 145.457031 62.5625 145.144531 63.128906 145.15625 C 63.683594 145.175781 64.230469 145.292969 64.742188 145.5 C 66.296875 146.054688 67.886719 146.5 69.503906 146.832031 C 70.144531 146.953125 70.535156 146.949219 70.878906 147.574219 C 71.195312 148.269531 71.40625 149.015625 71.496094 149.777344 Z M 71.496094 149.777344 "/>
<path style=" stroke:none;fill-rule:nonzero;fill:rgb(98.431373%,74.509804%,74.509804%);fill-opacity:1;" d="M 75.488281 159.644531 C 75.230469 160.035156 75.050781 160.46875 74.953125 160.925781 C 74.871094 161.28125 74.859375 161.648438 74.914062 162.007812 C 75.453125 161.894531 75.972656 161.707031 76.453125 161.441406 C 77.566406 160.828125 78.519531 159.632812 78.300781 158.382812 C 78.253906 158.144531 78.179688 157.910156 78.074219 157.691406 C 77.742188 157.617188 77.390625 157.726562 77.160156 157.980469 C 76.519531 158.445312 75.953125 159.003906 75.488281 159.644531 Z M 75.488281 159.644531 "/>
<path style=" stroke:none;fill-rule:nonzero;fill:rgb(24.705882%,23.921569%,33.72549%);fill-opacity:1;" d="M 63.152344 133.484375 C 63.003906 133.804688 62.957031 134.167969 63.023438 134.515625 C 63.183594 135.203125 63.890625 135.601562 64.527344 135.914062 L 70.578125 138.875 C 71 139.070312 71.410156 139.289062 71.804688 139.527344 C 72.835938 140.160156 73.648438 141.054688 74.53125 141.875 C 75.410156 142.695312 76.390625 143.460938 77.558594 143.75 C 78.722656 144.007812 79.941406 143.847656 81 143.300781 C 81.570312 143.015625 82.101562 142.65625 82.578125 142.230469 C 82.988281 141.867188 83.367188 141.472656 83.710938 141.046875 C 84.007812 140.734375 84.21875 140.351562 84.328125 139.9375 C 84.441406 139.304688 84.128906 138.6875 83.765625 138.167969 C 83.554688 137.867188 83.324219 137.582031 83.074219 137.3125 C 80.78125 134.773438 77.019531 133.460938 73.785156 132.941406 C 72.496094 132.734375 71.273438 132.253906 70.035156 131.863281 C 68.796875 131.46875 67.484375 131.171875 66.199219 131.355469 C 64.910156 131.539062 63.644531 132.277344 63.152344 133.484375 Z M 63.152344 133.484375 "/>
<use xlink:href="#surface51" mask="url(#mask15)"/>
<path style=" stroke:none;fill-rule:nonzero;fill:rgb(98.431373%,74.509804%,74.509804%);fill-opacity:1;" d="M 78.300781 135.375 C 78.769531 135.898438 79.152344 136.488281 79.4375 137.125 C 79.695312 137.542969 79.789062 138.042969 79.695312 138.527344 C 79.5625 138.851562 79.34375 139.136719 79.066406 139.355469 L 78.464844 139.910156 C 78.28125 140.101562 78.070312 140.257812 77.835938 140.378906 C 77.507812 140.503906 77.15625 140.554688 76.804688 140.535156 C 75.996094 140.535156 75.125 140.535156 74.46875 140.050781 C 73.570312 139.402344 73.410156 138.0625 73.816406 137.035156 C 74.226562 136.003906 75.085938 135.226562 75.949219 134.53125 C 76.648438 133.960938 77.808594 134.855469 78.300781 135.375 Z M 78.300781 135.375 "/>
<path style=" stroke:none;fill-rule:nonzero;fill:rgb(98.431373%,74.509804%,74.509804%);fill-opacity:1;" d="M 81.976562 138.933594 C 81.867188 139.503906 81.921875 140.097656 82.132812 140.636719 C 82.285156 141.15625 82.433594 141.671875 82.582031 142.199219 C 82.582031 142.199219 82.582031 142.199219 82.582031 142.21875 C 82.992188 141.859375 83.371094 141.464844 83.714844 141.039062 C 84.011719 140.726562 84.222656 140.34375 84.332031 139.925781 C 84.445312 139.296875 84.132812 138.675781 83.765625 138.15625 C 83.558594 137.855469 83.328125 137.570312 83.078125 137.300781 C 82.917969 137.511719 82.777344 137.71875 82.660156 137.851562 C 82.359375 138.160156 82.125 138.53125 81.976562 138.933594 Z M 81.976562 138.933594 "/>
<path style=" stroke:none;fill-rule:nonzero;fill:rgb(24.705882%,23.921569%,33.72549%);fill-opacity:1;" d="M 66.164062 113.273438 C 65.453125 116.265625 65.753906 119.402344 66.132812 122.457031 C 66.421875 124.785156 66.746094 127.195312 66.058594 129.4375 C 65.800781 130.273438 65.398438 131.125 65.554688 131.988281 C 65.847656 133.617188 67.808594 134.246094 69.433594 134.550781 C 69.902344 134.671875 70.390625 134.699219 70.867188 134.636719 C 71.351562 134.507812 71.796875 134.269531 72.175781 133.949219 C 74.484375 132.269531 76.238281 129.9375 77.210938 127.25 C 77.828125 125.453125 78.023438 123.542969 78.210938 121.652344 C 78.53125 118.472656 78.847656 115.25 78.386719 112.089844 C 78.246094 111.160156 78.039062 110.242188 77.953125 109.304688 C 77.847656 107.675781 77.9375 106.039062 78.222656 104.433594 C 78.816406 100.453125 79.714844 96.523438 80.90625 92.679688 C 77.628906 93.113281 74.300781 92.511719 71.382812 90.957031 C 71.945312 91.257812 71.296875 96.089844 71.230469 96.769531 C 71.019531 98.789062 70.65625 100.792969 70.140625 102.757812 C 69.179688 106.433594 67.035156 109.621094 66.164062 113.273438 Z M 66.164062 113.273438 "/>
<use xlink:href="#surface54" mask="url(#mask16)"/>
<path style=" stroke:none;fill-rule:nonzero;fill:rgb(24.705882%,23.921569%,33.72549%);fill-opacity:1;" d="M 84.03125 95.71875 C 85.410156 99.707031 85.105469 104.066406 84.511719 108.25 C 83.914062 112.429688 83.039062 116.609375 83.296875 120.820312 C 83.394531 122.472656 83.664062 124.167969 83.183594 125.75 C 82.914062 126.519531 82.558594 127.257812 82.125 127.949219 L 71.144531 146.949219 C 70.574219 147.953125 69.539062 148.597656 68.390625 148.671875 C 67.21875 148.753906 66.0625 148.367188 64.96875 147.9375 C 64.242188 147.695312 63.566406 147.320312 62.976562 146.832031 C 62.382812 146.339844 62.070312 145.585938 62.136719 144.816406 C 62.628906 141.515625 63.371094 138.140625 63.917969 134.828125 C 64.289062 132.585938 65.101562 130.433594 66.304688 128.503906 C 67.15625 127.128906 68.203125 125.890625 68.933594 124.457031 C 71.039062 120.355469 70.3125 115.347656 68.6875 111.03125 C 67.0625 106.710938 64.644531 102.703125 63.351562 98.289062 C 62.96875 97.0625 62.75 95.789062 62.703125 94.503906 C 62.667969 91.820312 63.703125 89.238281 65.578125 87.320312 C 65.851562 87.011719 66.191406 86.777344 66.574219 86.632812 C 67.019531 86.527344 67.488281 86.535156 67.929688 86.65625 C 74.046875 87.84375 82.011719 89.824219 84.03125 95.71875 Z M 84.03125 95.71875 "/>
<path style=" stroke:none;fill-rule:nonzero;fill:rgb(98.431373%,74.509804%,74.509804%);fill-opacity:1;" d="M 182.746094 36.140625 C 182.945312 37.648438 182.402344 39.171875 181.628906 40.480469 C 178.699219 45.367188 171.945312 47.53125 166.726562 45.253906 C 164.574219 44.3125 162.753906 42.765625 160.972656 41.234375 C 160.375 40.71875 159.75 40.179688 159.449219 39.449219 C 158.914062 38.15625 159.558594 36.617188 160.605469 35.695312 C 161.65625 34.773438 163.015625 34.320312 164.367188 33.910156 C 168.832031 32.519531 181.683594 28.132812 182.746094 36.140625 Z M 182.746094 36.140625 "/>
<path style=" stroke:none;fill-rule:nonzero;fill:rgb(24.705882%,23.921569%,33.72549%);fill-opacity:1;" d="M 180.132812 31.355469 C 184.199219 34.625 190.113281 37.742188 194.71875 40.164062 C 196.285156 40.992188 198.023438 41.921875 198.589844 43.609375 C 198.890625 44.511719 198.792969 45.492188 198.691406 46.441406 C 198.5 48.269531 198.300781 50.125 197.59375 51.824219 C 196.765625 53.8125 195.296875 55.449219 194.121094 57.253906 C 192.054688 60.414062 190.84375 64.140625 188.292969 66.933594 C 190.015625 72.652344 191.898438 78.363281 192.511719 84.300781 C 192.542969 84.464844 192.527344 84.632812 192.457031 84.785156 C 192.386719 84.886719 192.296875 84.96875 192.191406 85.03125 L 187.910156 87.839844 C 187.441406 88.113281 187.023438 88.460938 186.671875 88.871094 C 185.917969 89.859375 186.015625 91.242188 185.546875 92.386719 C 185.03125 93.519531 184.074219 94.390625 182.898438 94.796875 C 181.726562 95.203125 180.480469 95.335938 179.253906 95.183594 C 177.691406 95.085938 176.183594 94.554688 174.902344 93.652344 C 173.8125 92.824219 173.035156 91.664062 172.285156 90.523438 C 171.730469 89.742188 171.265625 88.898438 170.90625 88.011719 C 170.449219 86.746094 170.421875 85.363281 170.441406 84.015625 C 170.449219 81.445312 170.695312 78.882812 171.171875 76.359375 C 171.371094 75.359375 171.621094 74.371094 171.777344 73.359375 C 172.09375 71.328125 172.03125 69.257812 172.265625 67.214844 C 172.585938 64.917969 173.097656 62.652344 173.796875 60.441406 C 174.179688 59.074219 174.480469 57.683594 174.695312 56.277344 C 175.097656 53.804688 175.898438 51.417969 176.699219 49.046875 L 178.078125 44.980469 C 178.367188 44.101562 178.664062 43.226562 179.011719 42.367188 C 179.660156 40.769531 180.492188 39.207031 180.710938 37.5 C 180.957031 35.636719 178.949219 33.425781 179.625 31.675781 C 179.679688 31.484375 179.980469 31.230469 180.132812 31.355469 Z M 180.132812 31.355469 "/>
<path style=" stroke:none;fill-rule:nonzero;fill:rgb(24.705882%,23.921569%,33.72549%);fill-opacity:1;" d="M 197.488281 42.648438 C 198.441406 43.078125 198.96875 44.105469 199.308594 45.097656 C 200.074219 47.332031 200.261719 49.726562 199.84375 52.050781 C 199.710938 52.636719 199.617188 53.230469 199.570312 53.828125 C 199.578125 54.519531 199.644531 55.210938 199.773438 55.894531 C 200.117188 58.527344 199.773438 61.203125 199.886719 63.863281 C 200.003906 66.851562 200.652344 70.007812 199.402344 72.722656 C 198.566406 74.527344 196.992188 75.871094 195.4375 77.089844 C 189.644531 81.605469 183.253906 85.296875 176.449219 88.054688 C 177.621094 86.640625 177.644531 84.515625 176.863281 82.855469 C 176.082031 81.191406 174.628906 79.941406 173.074219 78.96875 C 175.050781 78.53125 176.964844 77.847656 178.773438 76.933594 C 182.378906 75.105469 185.46875 72.421875 188.523438 69.765625 C 188.972656 69.441406 189.324219 69 189.535156 68.484375 C 189.84375 67.453125 188.988281 66.472656 188.398438 65.566406 C 186.605469 62.8125 187.019531 59.214844 187.769531 56.023438 C 188.609375 52.53125 189.835938 49.046875 192.078125 46.238281 C 193.472656 44.484375 195.296875 43.132812 197.488281 42.648438 Z M 197.488281 42.648438 "/>
<path style=" stroke:none;fill-rule:nonzero;fill:rgb(98.431373%,74.509804%,74.509804%);fill-opacity:1;" d="M 176.144531 88.140625 C 175.835938 88.644531 175.433594 89.085938 174.960938 89.441406 C 173.929688 90.128906 172.511719 89.867188 171.359375 89.378906 C 170.289062 88.925781 169.296875 88.296875 168.433594 87.515625 C 168.0625 87.121094 167.621094 86.792969 167.136719 86.550781 C 166.234375 86.207031 164.972656 86.464844 164.46875 85.636719 C 164.410156 85.550781 164.378906 85.445312 164.386719 85.339844 C 164.417969 85.039062 164.808594 84.957031 165.113281 84.941406 C 166.515625 84.847656 167.882812 84.425781 169.09375 83.710938 C 168.707031 83.429688 168.375 83.082031 168.117188 82.679688 C 168.007812 82.539062 167.953125 82.367188 167.953125 82.191406 C 167.992188 81.996094 168.097656 81.824219 168.25 81.699219 C 170.511719 79.5625 173.84375 79.007812 176.675781 80.296875 C 176.945312 80.40625 177.183594 80.582031 177.363281 80.8125 C 177.492188 81.023438 177.578125 81.257812 177.617188 81.5 C 177.839844 82.464844 178.648438 83.910156 178.355469 84.886719 C 178.03125 86.003906 176.808594 87.191406 176.144531 88.140625 Z M 176.144531 88.140625 "/>
<path style=" stroke:none;fill-rule:nonzero;fill:rgb(24.705882%,23.921569%,33.72549%);fill-opacity:1;" d="M 152.679688 83.796875 C 156.960938 78.851562 158.871094 72.339844 160.648438 66.042969 L 161.917969 61.566406 L 164.980469 50.785156 C 165.433594 49.191406 165.882812 47.601562 166.183594 45.980469 C 166.695312 43.179688 166.742188 40.320312 166.710938 37.476562 C 166.667969 36.296875 166.398438 35.136719 165.917969 34.058594 C 165.617188 33.316406 165.472656 32.523438 165.230469 31.757812 C 164.917969 30.6875 164.453125 29.667969 163.847656 28.730469 C 163.679688 28.453125 163.472656 28.199219 163.226562 27.988281 C 162.800781 27.699219 162.324219 27.503906 161.820312 27.414062 C 160.722656 27.089844 159.589844 26.917969 158.449219 26.902344 C 157.308594 26.941406 156.128906 27.339844 155.394531 28.207031 C 154.832031 28.871094 154.574219 29.730469 154.128906 30.480469 C 153.921875 30.785156 153.734375 31.105469 153.570312 31.433594 C 153.378906 31.933594 153.273438 32.460938 153.257812 32.996094 C 153.082031 35.164062 152.929688 37.335938 152.800781 39.511719 C 152.742188 40.5 152.691406 41.496094 152.730469 42.484375 C 152.761719 43.257812 152.84375 44.023438 152.925781 44.792969 L 153.742188 52.3125 C 153.929688 54.078125 153.796875 55.730469 153.953125 57.5 C 154.339844 61.773438 153.421875 66.046875 152.476562 70.242188 C 152.027344 72.234375 151.5625 74.257812 150.597656 76.0625 C 149.75 77.660156 148.476562 79.28125 148.8125 81.058594 C 148.929688 81.679688 149.242188 82.257812 149.292969 82.886719 C 149.269531 83.273438 149.304688 83.664062 149.40625 84.039062 C 149.691406 84.5625 150.285156 84.84375 150.875 84.726562 C 151.554688 84.609375 152.183594 84.285156 152.679688 83.796875 Z M 152.679688 83.796875 "/>
<path style=" stroke:none;fill-rule:nonzero;fill:rgb(98.431373%,74.509804%,74.509804%);fill-opacity:1;" d="M 153.199219 63.996094 C 153.332031 64.984375 153.230469 65.984375 153.28125 66.980469 C 153.386719 68.261719 153.617188 69.53125 153.96875 70.769531 C 154.3125 72.144531 154.753906 73.6875 155.96875 74.453125 C 156.273438 74.609375 156.5625 74.792969 156.839844 75 C 157.117188 75.21875 157.226562 75.585938 157.121094 75.921875 L 156.175781 75.765625 C 156.46875 75.988281 156.605469 76.359375 156.53125 76.722656 C 156.457031 77.082031 156.183594 77.371094 155.824219 77.460938 C 155.464844 77.550781 155.089844 77.425781 154.851562 77.140625 C 154.890625 77.453125 154.859375 77.765625 154.765625 78.066406 C 154.667969 78.363281 154.394531 78.570312 154.078125 78.582031 C 153.898438 78.554688 153.730469 78.484375 153.585938 78.375 L 151.117188 76.84375 C 150.375 76.445312 149.757812 75.847656 149.335938 75.121094 L 148.253906 73.492188 C 148.015625 73.179688 147.828125 72.828125 147.695312 72.460938 C 147.292969 71.082031 148.417969 69.554688 147.832031 68.253906 C 147.65625 67.933594 147.449219 67.632812 147.214844 67.351562 C 145.96875 65.632812 146.046875 63.289062 146.183594 61.15625 C 146.226562 60.433594 146.359375 59.582031 147.007812 59.269531 C 147.527344 59.015625 148.144531 59.242188 148.625 59.554688 C 149.101562 59.867188 149.523438 60.28125 150.070312 60.464844 C 150.414062 60.582031 150.792969 60.597656 151.136719 60.722656 C 151.617188 60.890625 152.066406 61.546875 152.390625 61.9375 C 152.847656 62.535156 153.128906 63.246094 153.199219 63.996094 Z M 153.199219 63.996094 "/>
<path style=" stroke:none;fill-rule:nonzero;fill:rgb(74.509804%,43.529412%,44.705882%);fill-opacity:1;" d="M 123.042969 33.050781 C 122.75 33.722656 122.339844 34.335938 121.832031 34.863281 C 121.3125 35.394531 120.570312 35.652344 119.835938 35.550781 C 119.070312 35.398438 118.511719 34.769531 118.003906 34.175781 C 116.683594 32.621094 115.34375 31.046875 114.457031 29.207031 C 113.101562 26.410156 112.882812 23.214844 112.6875 20.113281 C 112.640625 19.3125 112.597656 18.464844 112.980469 17.765625 C 113.464844 16.875 114.492188 16.457031 115.445312 16.101562 L 120.691406 14.136719 C 121.015625 13.984375 121.371094 13.921875 121.722656 13.949219 C 122.546875 14.085938 122.851562 15.078125 123.074219 15.878906 C 123.472656 17.320312 124.140625 18.675781 125.035156 19.875 C 126.210938 21.445312 128.851562 23.558594 127.34375 25.519531 C 125.523438 27.867188 124.367188 30.398438 123.042969 33.050781 Z M 123.042969 33.050781 "/>
<path style=" stroke:none;fill-rule:nonzero;fill:rgb(89.019608%,90.980392%,95.686275%);fill-opacity:1;" d="M 129.757812 24.09375 C 132.054688 26.253906 132.832031 29.621094 132.722656 32.773438 C 132.613281 35.921875 131.738281 38.996094 131.242188 42.105469 C 130.742188 45.21875 130.640625 48.542969 131.992188 51.402344 C 132.457031 52.386719 133.09375 53.292969 133.414062 54.332031 C 133.6875 55.355469 133.777344 56.417969 133.6875 57.472656 C 133.683594 58.585938 133.46875 59.6875 133.0625 60.726562 C 132.328125 62.351562 130.820312 63.480469 129.378906 64.511719 C 126.4375 66.640625 123.433594 68.800781 119.980469 69.914062 C 117.640625 70.667969 115.160156 70.917969 112.710938 71.050781 C 111.050781 71.183594 109.382812 71.136719 107.734375 70.910156 C 104.851562 70.429688 102.199219 69.023438 100.179688 66.910156 C 99.828125 66.566406 99.539062 66.167969 99.324219 65.726562 C 99.113281 65.15625 99.011719 64.546875 99.023438 63.9375 C 98.941406 61.675781 98.957031 59.414062 99.066406 57.152344 C 99.128906 55 99.425781 52.859375 99.949219 50.765625 C 100.605469 48.355469 101.746094 46.097656 102.609375 43.75 C 105.617188 35.585938 105.316406 26.296875 109.492188 18.671875 C 110.394531 17.027344 111.902344 15.292969 113.761719 15.554688 C 114.117188 15.578125 114.453125 15.734375 114.703125 15.992188 C 114.917969 16.304688 115.035156 16.671875 115.046875 17.050781 C 115.492188 20.753906 116.121094 24.558594 117.867188 27.902344 C 118.554688 29.210938 119.585938 31.210938 121.175781 31.5625 C 122.761719 31.910156 123.695312 30.398438 124.546875 29.324219 C 126.039062 27.351562 127.792969 25.59375 129.757812 24.09375 Z M 129.757812 24.09375 "/>
<path style=" stroke:none;fill-rule:nonzero;fill:rgb(24.705882%,23.921569%,33.72549%);fill-opacity:1;" d="M 140.757812 18.519531 C 141.230469 18.769531 141.667969 19.078125 142.0625 19.433594 C 143.097656 20.410156 143.476562 21.910156 143.46875 23.328125 C 143.460938 24.746094 143.125 26.144531 142.917969 27.550781 C 142.363281 31.335938 142.835938 35.214844 143.054688 39.050781 C 143.121094 39.667969 143.085938 40.296875 142.945312 40.902344 C 142.777344 41.480469 142.429688 41.988281 142.207031 42.550781 C 141.546875 44.210938 142.042969 46.105469 141.65625 47.847656 C 141.246094 49.703125 139.832031 51.390625 140.09375 53.273438 C 140.203125 54.011719 140.558594 54.6875 140.707031 55.417969 C 140.859375 56.148438 140.730469 57.03125 140.097656 57.421875 C 139.46875 57.816406 138.554688 57.53125 137.804688 57.746094 C 137.5 57.859375 137.203125 57.992188 136.914062 58.144531 C 135.753906 58.667969 134.371094 58.488281 133.230469 57.917969 C 132.109375 57.308594 131.101562 56.507812 130.253906 55.554688 C 128.941406 54.214844 127.671875 52.742188 127.097656 50.957031 C 126.257812 48.367188 127.003906 45.546875 127.914062 42.976562 C 128.828125 40.410156 129.914062 37.8125 129.753906 35.082031 C 129.664062 33.554688 129.183594 32.082031 128.894531 30.582031 C 128.535156 28.503906 128.40625 26.390625 128.511719 24.28125 C 128.554688 22.738281 128.660156 21.148438 129.324219 19.753906 C 130.285156 17.863281 132.140625 16.59375 134.25 16.378906 C 136.660156 16.117188 138.726562 17.347656 140.757812 18.519531 Z M 140.757812 18.519531 "/>
<use xlink:href="#surface57" mask="url(#mask17)"/>
<path style=" stroke:none;fill-rule:nonzero;fill:rgb(24.705882%,23.921569%,33.72549%);fill-opacity:1;" d="M 111.050781 15.117188 C 109.394531 15.554688 107.953125 16.539062 106.347656 17.183594 C 104.679688 17.871094 102.882812 18.164062 101.128906 18.585938 C 97.074219 19.570312 93.003906 21.398438 90.558594 24.785156 C 88.753906 27.273438 88.007812 30.347656 86.773438 33.167969 C 85.738281 35.535156 84.363281 37.75 83.601562 40.214844 C 82.609375 43.425781 82.722656 46.871094 82.964844 50.222656 C 83.164062 52.976562 83.46875 55.761719 84.71875 58.203125 C 85.371094 59.484375 86.273438 60.632812 86.925781 61.914062 C 87.710938 63.453125 88.125 65.148438 88.777344 66.734375 C 89.433594 68.316406 90.390625 69.902344 91.910156 70.726562 L 94.421875 69.257812 C 98.171875 67.0625 101.917969 64.867188 105.550781 62.484375 C 108.714844 60.417969 111.910156 58.046875 113.59375 54.652344 C 115.089844 51.652344 115.238281 48.148438 114.851562 44.816406 C 114.464844 41.488281 113.585938 38.230469 113.132812 34.910156 C 112.550781 30.734375 112.640625 26.488281 113.390625 22.339844 C 113.734375 20.464844 114.648438 18.53125 114.839844 16.664062 C 115.046875 14.671875 112.488281 14.738281 111.050781 15.117188 Z M 111.050781 15.117188 "/>
<path style=" stroke:none;fill-rule:nonzero;fill:rgb(98.431373%,74.509804%,74.509804%);fill-opacity:1;" d="M 95.519531 69.851562 C 97.445312 71.675781 100.210938 72.203125 102.617188 73.296875 C 104.40625 74.125 106.015625 75.296875 107.355469 76.738281 C 108.097656 77.550781 108.8125 78.65625 108.441406 79.691406 C 108.125 80.578125 107.167969 81.03125 106.285156 81.363281 C 105.191406 81.777344 103.96875 82.140625 102.878906 81.726562 C 102.238281 81.480469 101.722656 80.992188 101.132812 80.644531 C 99.691406 79.785156 97.875 79.78125 96.394531 78.992188 C 94.308594 77.875 93.269531 75.421875 91.308594 74.09375 C 90.234375 73.371094 88.75 72.78125 88.640625 71.488281 C 88.636719 71.019531 88.734375 70.558594 88.929688 70.136719 C 89.324219 69.082031 90 65.460938 91.507812 65.558594 C 93.148438 65.664062 94.296875 68.980469 95.519531 69.851562 Z M 95.519531 69.851562 "/>
<path style=" stroke:none;fill-rule:nonzero;fill:rgb(98.431373%,74.509804%,74.509804%);fill-opacity:1;" d="M 85.441406 53.714844 C 86.070312 55.980469 87.53125 57.910156 89.050781 59.707031 C 90.140625 61 91.339844 62.40625 91.375 64.09375 C 91.410156 65.691406 90.34375 67.164062 88.96875 67.980469 C 87.589844 68.796875 85.96875 69.058594 84.375 69.160156 C 83.101562 69.285156 81.816406 69.195312 80.570312 68.894531 C 77.425781 68.042969 75.242188 65.296875 72.769531 63.175781 C 71.296875 61.917969 69.648438 60.824219 68.519531 59.25 C 67.394531 57.675781 66.921875 55.417969 68.027344 53.832031 C 68.429688 53.316406 68.890625 52.855469 69.40625 52.453125 C 71.285156 50.824219 72.886719 48.898438 74.152344 46.753906 C 74.660156 45.890625 75.148438 44.953125 76.007812 44.433594 C 77.234375 43.6875 78.8125 44.027344 80.203125 44.394531 C 81.714844 44.789062 85.96875 45.5625 86.265625 47.492188 C 86.386719 48.285156 85.40625 49.515625 85.257812 50.367188 C 85.070312 51.484375 85.132812 52.625 85.441406 53.714844 Z M 85.441406 53.714844 "/>
<path style=" stroke:none;fill-rule:nonzero;fill:rgb(97.254902%,42.745098%,43.921569%);fill-opacity:1;" d="M 93.222656 58.03125 C 93.671875 58.847656 94.042969 59.707031 94.328125 60.597656 C 95.378906 64.246094 93.503906 68.007812 92.609375 71.699219 C 91.464844 76.425781 91.953125 81.371094 91.898438 86.234375 C 91.871094 88.460938 91.636719 90.90625 90.035156 92.449219 C 89.621094 92.84375 89.125 93.171875 88.847656 93.667969 C 88.675781 94.03125 88.546875 94.414062 88.464844 94.808594 C 87.96875 96.53125 86.714844 97.9375 85.058594 98.617188 C 83.402344 99.300781 81.523438 99.1875 79.957031 98.3125 C 78.652344 97.585938 77.519531 96.328125 76.027344 96.289062 C 75.558594 96.3125 75.089844 96.363281 74.625 96.445312 C 73.140625 96.59375 71.683594 96.042969 70.289062 95.5 C 69.957031 95.394531 69.648438 95.230469 69.375 95.011719 C 69.125 94.78125 68.960938 94.472656 68.730469 94.222656 C 67.882812 93.308594 66.429688 93.464844 65.203125 93.210938 C 63.335938 92.792969 61.878906 91.335938 61.460938 89.46875 C 61.214844 88.285156 61.425781 87.058594 61.632812 85.863281 L 62.554688 80.539062 C 62.941406 78.585938 63.207031 76.613281 63.355469 74.628906 C 63.46875 72.386719 63.277344 70.136719 62.785156 67.945312 C 62.378906 66.15625 61.773438 64.402344 61.550781 62.578125 C 61.167969 59.304688 62.027344 56.011719 63.960938 53.347656 C 64.441406 52.6875 65.066406 52.03125 65.878906 51.96875 C 66.535156 51.910156 67.152344 52.261719 67.722656 52.597656 C 72.6875 55.535156 77.683594 58.414062 82.714844 61.230469 C 84.089844 62.003906 85.5 62.785156 87.035156 63.164062 C 87.496094 63.28125 88.15625 63.234375 88.222656 62.765625 C 88.230469 62.589844 88.183594 62.410156 88.085938 62.261719 C 87.226562 60.605469 85.980469 59.183594 84.988281 57.605469 C 84 56.027344 83.234375 54.160156 83.527344 52.332031 C 83.925781 49.796875 86.28125 48.117188 88.203125 50.105469 C 90.363281 52.359375 91.808594 55.261719 93.222656 58.03125 Z M 93.222656 58.03125 "/>
<path style=" stroke:none;fill-rule:nonzero;fill:rgb(98.431373%,74.509804%,74.509804%);fill-opacity:1;" d="M 77.808594 90.167969 C 81.847656 90.425781 85.972656 90.703125 89.710938 92.25 C 90.914062 92.746094 92.1875 93.386719 93.449219 93.082031 C 94.078125 92.890625 94.660156 92.574219 95.167969 92.15625 C 96.726562 91.015625 98.195312 89.761719 99.566406 88.40625 C 99.429688 87.652344 98.40625 87.546875 97.644531 87.554688 C 95.78125 87.566406 93.941406 87.125 92.289062 86.265625 C 91.746094 85.9375 91.167969 85.671875 90.566406 85.464844 C 88.933594 85.011719 87.269531 85.875 85.625 86.292969 C 83.195312 86.914062 80.636719 86.550781 78.15625 86.1875 L 71.457031 85.199219 C 70.835938 85.109375 70.132812 85.039062 69.636719 85.421875 C 69.304688 85.734375 69.078125 86.144531 68.984375 86.589844 C 68.167969 89.34375 68.558594 89.574219 71.285156 89.746094 Z M 77.808594 90.167969 "/>
<use xlink:href="#surface60" mask="url(#mask18)"/>
<path style=" stroke:none;fill-rule:nonzero;fill:rgb(98.431373%,74.509804%,74.509804%);fill-opacity:1;" d="M 180.191406 30.863281 C 180.191406 36.949219 175.261719 41.882812 169.179688 41.882812 C 163.097656 41.882812 158.167969 36.949219 158.167969 30.863281 C 158.167969 24.78125 163.097656 19.847656 169.179688 19.847656 C 175.261719 19.847656 180.191406 24.78125 180.191406 30.863281 Z M 180.191406 30.863281 "/>
<path style=" stroke:none;fill-rule:nonzero;fill:rgb(24.705882%,23.921569%,33.72549%);fill-opacity:1;" d="M 178.476562 16.875 C 179.355469 17.417969 180.277344 18.003906 180.761719 18.921875 C 181.019531 19.542969 181.21875 20.1875 181.347656 20.847656 C 181.953125 22.914062 183.554688 24.707031 183.652344 26.859375 C 183.757812 29.21875 181.988281 31.269531 179.988281 32.503906 C 179.53125 32.839844 178.976562 33.027344 178.410156 33.035156 C 177.828125 32.996094 177.328125 32.632812 176.792969 32.398438 C 174.53125 31.390625 172.003906 32.664062 169.605469 33.25 C 167.117188 33.851562 164.507812 33.699219 162.105469 32.808594 C 160.8125 32.328125 159.5625 31.605469 158.753906 30.484375 C 157.945312 29.367188 157.65625 27.800781 158.34375 26.597656 C 158.6875 25.984375 159.257812 25.433594 159.21875 24.734375 C 159.199219 24.3125 158.953125 23.933594 158.875 23.519531 C 158.765625 22.863281 159.109375 22.222656 159.460938 21.660156 C 161.054688 19.097656 163.066406 16.820312 165.414062 14.921875 C 166.101562 14.359375 166.898438 13.808594 167.800781 13.765625 C 169.609375 13.6875 171.164062 15.035156 173.027344 15.042969 C 175.140625 15.050781 176.660156 15.753906 178.476562 16.875 Z M 178.476562 16.875 "/>
<use xlink:href="#surface63" mask="url(#mask19)"/>
<path style=" stroke:none;fill-rule:nonzero;fill:rgb(74.509804%,43.529412%,44.705882%);fill-opacity:1;" d="M 140.195312 16.894531 C 140.195312 23.171875 135.109375 28.257812 128.839844 28.257812 C 122.566406 28.257812 117.480469 23.171875 117.480469 16.894531 C 117.480469 10.621094 122.566406 5.535156 128.839844 5.535156 C 135.109375 5.535156 140.195312 10.621094 140.195312 16.894531 Z M 140.195312 16.894531 "/>
<path style=" stroke:none;fill-rule:nonzero;fill:rgb(24.705882%,23.921569%,33.72549%);fill-opacity:1;" d="M 134.90625 23.3125 C 136.507812 24.210938 138.488281 24.121094 140.277344 23.710938 C 141.292969 23.519531 142.253906 23.113281 143.101562 22.519531 C 143.949219 21.910156 144.472656 20.945312 144.519531 19.902344 C 144.519531 18.75 143.765625 17.707031 143.671875 16.554688 C 143.558594 15.101562 144.503906 13.757812 144.605469 12.300781 C 144.703125 10.839844 143.984375 9.523438 143.28125 8.269531 C 142.074219 6.117188 140.816406 3.9375 138.980469 2.292969 C 137.144531 0.648438 134.597656 -0.402344 132.1875 0.152344 C 131.003906 0.421875 129.90625 1.058594 128.695312 1.183594 C 127.625 1.285156 126.5625 0.960938 125.492188 0.824219 C 124.421875 0.683594 123.222656 0.769531 122.453125 1.511719 C 122.035156 1.925781 121.765625 2.507812 121.273438 2.808594 C 120.941406 2.964844 120.59375 3.089844 120.242188 3.191406 C 119 3.691406 118.429688 5.09375 117.992188 6.351562 L 115.039062 14.820312 C 116.023438 15.507812 117.214844 15.820312 118.296875 16.351562 C 119.378906 16.882812 120.425781 17.730469 120.648438 18.914062 C 120.816406 19.8125 120.496094 20.84375 121.019531 21.597656 C 121.496094 22.285156 122.472656 22.402344 123.296875 22.285156 C 124.125 22.167969 124.953125 21.882812 125.777344 22.007812 C 127.84375 22.324219 128.609375 23.589844 130.519531 22.007812 C 132.429688 20.429688 133.128906 22.316406 134.90625 23.3125 Z M 134.90625 23.3125 "/>
<use xlink:href="#surface66" mask="url(#mask20)"/>
<path style=" stroke:none;fill-rule:nonzero;fill:rgb(98.431373%,74.509804%,74.509804%);fill-opacity:1;" d="M 91.296875 41.960938 C 91.296875 47.664062 86.675781 52.289062 80.972656 52.289062 C 75.269531 52.289062 70.648438 47.664062 70.648438 41.960938 C 70.648438 36.253906 75.269531 31.628906 80.972656 31.628906 C 86.675781 31.628906 91.296875 36.253906 91.296875 41.960938 Z M 91.296875 41.960938 "/>
<path style=" stroke:none;fill-rule:nonzero;fill:rgb(24.705882%,23.921569%,33.72549%);fill-opacity:1;" d="M 88.878906 31.859375 C 86.421875 29.972656 83.660156 28.519531 80.710938 27.5625 C 78.824219 26.949219 76.773438 26.53125 74.859375 27.09375 C 72.265625 27.835938 68.792969 28.941406 67.1875 31.113281 C 66.394531 32.179688 65.59375 33.277344 65.210938 34.554688 C 64.445312 37.125 65.535156 39.863281 65.460938 42.542969 C 65.375 45.664062 63.71875 48.515625 61.914062 51.0625 C 60.105469 53.609375 59.742188 57.261719 58.675781 60.203125 C 58.308594 61.210938 58.191406 62.613281 59.132812 63.117188 C 59.957031 63.574219 60.957031 63.003906 61.722656 62.453125 L 66.316406 59.128906 C 66.671875 58.835938 67.085938 58.617188 67.527344 58.484375 C 68.472656 58.261719 69.398438 58.855469 70.191406 59.417969 L 79.828125 66.234375 C 80.210938 65.445312 80.230469 64.527344 79.871094 63.726562 C 80.777344 64.007812 81.433594 64.761719 82.230469 65.296875 C 83.023438 65.835938 84.230469 66.011719 84.808594 65.257812 C 85.386719 64.507812 84.953125 63.5 84.308594 62.894531 C 83.664062 62.289062 82.816406 61.925781 82.1875 61.304688 C 80.9375 60.058594 80.8125 58.097656 80.023438 56.527344 C 79.457031 55.425781 78.546875 54.503906 78.148438 53.328125 C 77.496094 51.410156 78.347656 49.34375 79.179688 47.5 C 80.175781 45.308594 81.300781 42.972656 83.417969 41.828125 C 84.128906 41.441406 84.917969 41.214844 85.648438 40.863281 C 87.464844 39.992188 89.730469 37.9375 90.621094 36.09375 C 91.398438 34.460938 90.199219 32.878906 88.878906 31.859375 Z M 88.878906 31.859375 "/>
<use xlink:href="#surface69" mask="url(#mask21)"/>
<path style=" stroke:none;fill-rule:nonzero;fill:rgb(97.254902%,42.745098%,43.921569%);fill-opacity:1;" d="M 72.890625 65.316406 C 73.875 65.945312 74.992188 66.351562 75.960938 67.007812 C 76.933594 67.667969 77.78125 68.664062 77.8125 69.832031 C 77.84375 71 77.125 71.9375 76.4375 72.824219 L 68.050781 83.820312 L 72.324219 84.953125 C 71.636719 85.90625 71.460938 87.113281 71.101562 88.234375 C 70.746094 89.351562 70.070312 90.507812 68.925781 90.800781 C 67.894531 91.066406 66.8125 90.523438 65.746094 90.585938 C 64.960938 90.628906 64.214844 91.003906 63.429688 91.03125 C 62.414062 91.070312 61.46875 90.535156 60.625 89.972656 C 58.738281 88.710938 56.863281 86.898438 56.882812 84.628906 C 56.921875 83.859375 57.078125 83.101562 57.335938 82.375 C 58.570312 78.339844 59.851562 74.210938 62.414062 70.863281 C 63.789062 69.066406 65.476562 67.554688 67.15625 66.042969 C 67.539062 65.65625 67.988281 65.347656 68.484375 65.121094 C 69.585938 64.707031 70.785156 65.21875 71.925781 65.550781 C 73.0625 65.886719 74.5 65.929688 75.15625 64.957031 "/>
<use xlink:href="#surface72" mask="url(#mask22)"/>
<use xlink:href="#surface75" mask="url(#mask23)"/>
<use xlink:href="#surface78" mask="url(#mask24)"/>
<path style=" stroke:none;fill-rule:nonzero;fill:rgb(89.019608%,90.980392%,95.686275%);fill-opacity:1;" d="M 174.550781 83.53125 C 174.550781 83.53125 154.832031 85.113281 150.910156 82.316406 L 168.949219 79.535156 Z M 174.550781 83.53125 "/>
<use xlink:href="#surface81" mask="url(#mask25)"/>
<path style=" stroke:none;fill-rule:nonzero;fill:rgb(89.019608%,90.980392%,95.686275%);fill-opacity:1;" d="M 174.550781 83.53125 L 169.027344 80.035156 C 169.027344 80.035156 152.550781 84.773438 148.035156 82.816406 L 152.628906 76.367188 L 168.957031 79.550781 Z M 174.550781 83.53125 "/>
<path style=" stroke:none;fill-rule:nonzero;fill:rgb(24.705882%,23.921569%,33.72549%);fill-opacity:1;" d="M 150.046875 37.144531 C 149.4375 37.914062 148.949219 38.773438 148.601562 39.691406 C 148.441406 40.175781 148.363281 40.683594 148.226562 41.175781 C 147.851562 42.398438 147.269531 43.554688 146.507812 44.585938 C 144.808594 47.054688 142.691406 49.4375 142.265625 52.402344 C 142.058594 53.867188 142.285156 55.351562 142.574219 56.804688 C 142.730469 57.757812 143.003906 58.691406 143.386719 59.582031 C 143.824219 60.523438 144.472656 61.355469 144.972656 62.265625 C 145.429688 63.164062 145.8125 64.09375 146.121094 65.050781 C 146.710938 64.460938 147.058594 63.671875 147.527344 62.984375 C 148 62.292969 148.703125 61.675781 149.53125 61.664062 C 150.488281 61.664062 151.277344 62.457031 152.222656 62.582031 C 152.371094 62.609375 152.523438 62.597656 152.664062 62.539062 C 153.007812 62.378906 153.035156 61.914062 153.007812 61.539062 C 152.738281 58.941406 151.25 56.375 151.953125 53.855469 C 152.597656 51.523438 154.910156 50.066406 156.125 47.976562 C 157.007812 46.460938 157.269531 44.667969 157.503906 42.925781 C 157.796875 40.84375 158.089844 38.742188 157.960938 36.644531 C 157.894531 35.589844 157.054688 28.910156 155.519531 29.609375 C 154.988281 29.847656 154.523438 30.871094 154.1875 31.328125 L 152.8125 33.28125 Z M 150.046875 37.144531 "/>
<path style=" stroke:none;fill-rule:nonzero;fill:rgb(89.019608%,90.980392%,95.686275%);fill-opacity:1;" d="M 108.855469 80.238281 L 97.785156 89.253906 L 83.539062 86.707031 L 93.132812 79.171875 Z M 108.855469 80.238281 "/>
<use xlink:href="#surface84" mask="url(#mask26)"/>
<path style=" stroke:none;fill-rule:nonzero;fill:rgb(89.019608%,90.980392%,95.686275%);fill-opacity:1;" d="M 109.175781 79.199219 L 98.105469 88.210938 L 83.855469 85.667969 L 93.453125 78.128906 Z M 109.175781 79.199219 "/>
<use xlink:href="#surface87" mask="url(#mask27)"/>
<path style=" stroke:none;fill-rule:nonzero;fill:rgb(89.019608%,90.980392%,95.686275%);fill-opacity:1;" d="M 109.414062 77.675781 L 98.34375 86.695312 L 84.097656 84.144531 L 93.691406 76.613281 Z M 109.414062 77.675781 "/>
<path style=" stroke:none;fill-rule:nonzero;fill:rgb(24.705882%,23.921569%,33.72549%);fill-opacity:1;" d="M 255.050781 200.890625 C 255.582031 200.632812 256.203125 200.652344 256.714844 200.945312 C 257.226562 201.238281 257.5625 201.765625 257.609375 202.355469 L 258.222656 210.347656 L 254.570312 211.007812 L 252.640625 205.230469 Z M 255.050781 200.890625 "/>
<path style=" stroke:none;fill-rule:nonzero;fill:rgb(24.705882%,23.921569%,33.72549%);fill-opacity:1;" d="M 127.179688 147.324219 L 71.242188 175.726562 C 69.933594 176.394531 69.113281 177.738281 69.121094 179.210938 C 69.125 180.679688 69.957031 182.019531 71.269531 182.675781 L 191.742188 243.164062 C 196.09375 245.34375 201.246094 245.214844 205.484375 242.820312 L 256.226562 214.191406 C 257.480469 213.476562 258.238281 212.125 258.1875 210.679688 C 258.140625 209.234375 257.296875 207.9375 255.996094 207.304688 L 130.617188 147.289062 C 129.527344 146.765625 128.257812 146.78125 127.179688 147.324219 Z M 127.179688 147.324219 "/>
<path style=" stroke:none;fill-rule:nonzero;fill:rgb(24.705882%,23.921569%,33.72549%);fill-opacity:1;" d="M 70.867188 170.785156 L 69.117188 172.085938 L 68.980469 178.316406 C 68.957031 179.308594 69.5 180.226562 70.382812 180.679688 L 192.914062 243.585938 C 193.480469 243.878906 194.15625 243.855469 194.699219 243.523438 C 195.242188 243.191406 195.574219 242.601562 195.574219 241.964844 L 195.574219 232.914062 Z M 70.867188 170.785156 "/>
<path style=" stroke:none;fill-rule:nonzero;fill:rgb(89.019608%,90.980392%,95.686275%);fill-opacity:1;" d="M 127.179688 140.101562 L 71.242188 168.496094 C 69.933594 169.164062 69.113281 170.507812 69.113281 171.980469 C 69.117188 173.449219 69.949219 174.789062 71.261719 175.449219 L 191.742188 235.9375 C 196.097656 238.117188 201.246094 237.988281 205.484375 235.59375 L 256.226562 206.960938 C 257.480469 206.246094 258.238281 204.894531 258.1875 203.449219 C 258.140625 202.003906 257.296875 200.707031 255.996094 200.074219 L 130.617188 140.058594 C 129.527344 139.539062 128.257812 139.554688 127.179688 140.101562 Z M 127.179688 140.101562 "/>
<path style=" stroke:none;fill-rule:nonzero;fill:rgb(24.705882%,23.921569%,33.72549%);fill-opacity:1;" d="M 138.757812 145.253906 L 77.125 176.566406 L 183.054688 229.554688 L 246.613281 197.28125 Z M 138.757812 145.253906 "/>
<path style=" stroke:none;fill-rule:nonzero;fill:rgb(24.705882%,23.921569%,33.72549%);fill-opacity:1;" d="M 228.316406 216.070312 C 228.316406 213.941406 225.40625 212.214844 221.816406 212.214844 C 218.226562 212.214844 215.3125 213.941406 215.3125 216.070312 C 215.3125 218.195312 218.226562 219.921875 221.816406 219.921875 C 225.40625 219.921875 228.316406 218.195312 228.316406 216.070312 Z M 228.316406 216.070312 "/>
<path style=" stroke:none;fill-rule:nonzero;fill:rgb(24.705882%,23.921569%,33.72549%);fill-opacity:1;" d="M 103.847656 155.25 C 103.847656 155.585938 103.578125 155.855469 103.246094 155.855469 C 102.914062 155.855469 102.644531 155.585938 102.644531 155.25 C 102.644531 154.917969 102.914062 154.648438 103.246094 154.648438 C 103.578125 154.648438 103.847656 154.917969 103.847656 155.25 Z M 103.847656 155.25 "/>
<path style=" stroke:none;fill-rule:nonzero;fill:rgb(24.705882%,23.921569%,33.72549%);fill-opacity:1;" d="M 102.167969 159.949219 C 102.167969 160.347656 101.84375 160.671875 101.445312 160.671875 C 101.042969 160.671875 100.71875 160.347656 100.71875 159.949219 C 100.71875 159.546875 101.042969 159.226562 101.445312 159.226562 C 101.84375 159.226562 102.167969 159.546875 102.167969 159.949219 Z M 102.167969 159.949219 "/>
<path style="fill:none;stroke-width:1;stroke-linecap:butt;stroke-linejoin:miter;stroke:rgb(24.705882%,23.921569%,33.72549%);stroke-opacity:1;stroke-miterlimit:10;" d="M 302.449735 461.027842 L 323.436321 451.237325 " transform="matrix(0.344156,0,0,0.344322,0,0)"/>
<path style=" stroke:none;fill-rule:nonzero;fill:rgb(25.882353%,60%,88.235294%);fill-opacity:1;" d="M 147.691406 186.195312 L 168.082031 174.414062 C 171.046875 172.703125 174.835938 173.71875 176.542969 176.683594 C 178.253906 179.648438 177.242188 183.4375 174.277344 185.152344 L 153.886719 196.929688 C 150.921875 198.640625 147.132812 197.625 145.421875 194.660156 C 143.710938 191.695312 144.726562 187.90625 147.691406 186.195312 Z M 147.691406 186.195312 "/>
<path style=" stroke:none;fill-rule:nonzero;fill:rgb(25.882353%,60%,88.235294%);fill-opacity:1;" d="M 165.929688 195.492188 L 186.324219 183.714844 C 189.285156 182.003906 193.074219 183.019531 194.785156 185.980469 C 196.496094 188.945312 195.480469 192.738281 192.515625 194.449219 L 172.125 206.226562 C 169.160156 207.9375 165.375 206.921875 163.664062 203.960938 C 161.953125 200.996094 162.96875 197.203125 165.929688 195.492188 Z M 165.929688 195.492188 "/>
<path style=" stroke:none;fill-rule:nonzero;fill:rgb(25.882353%,60%,88.235294%);fill-opacity:1;" d="M 131.171875 175.523438 L 151.5625 163.742188 C 154.527344 162.03125 158.316406 163.046875 160.027344 166.011719 C 161.734375 168.976562 160.722656 172.765625 157.757812 174.476562 L 137.367188 186.257812 C 134.402344 187.96875 130.613281 186.953125 128.902344 183.988281 C 127.191406 181.023438 128.207031 177.234375 131.171875 175.523438 Z M 131.171875 175.523438 "/>
</g>
</svg>
